<svg xmlns="http://www.w3.org/2000/svg" xmlns:xlink="http://www.w3.org/1999/xlink" width="600" zoomAndPan="magnify" viewBox="0 0 450 299.999988" height="400" preserveAspectRatio="xMidYMid meet" version="1.0"><defs><filter x="0%" y="0%" width="100%" height="100%" id="50df5f8e72"><feColorMatrix values="0 0 0 0 1 0 0 0 0 1 0 0 0 0 1 0 0 0 1 0" color-interpolation-filters="sRGB"/></filter><clipPath id="b74464d506"><path d="M 27.441406 260 L 422.691406 260 L 422.691406 261 L 27.441406 261 Z M 27.441406 260 " clip-rule="nonzero"/></clipPath><mask id="74af5aabce"><g filter="url(#50df5f8e72)"><rect x="-45" width="540" fill="#000000" y="-29.999999" height="359.999986" fill-opacity="0.6"/></g></mask><clipPath id="22c55fdc3c"><path d="M 0.558594 1 L 3 1 L 3 6 L 0.558594 6 Z M 0.558594 1 " clip-rule="nonzero"/></clipPath><clipPath id="00d2bd3d64"><rect x="0" width="12" y="0" height="7"/></clipPath></defs><path fill="#f0f0f0" d="M 374.714844 79.628906 C 374.824219 78.992188 374.859375 78.351562 374.828125 77.710938 C 374.792969 77.066406 374.691406 76.433594 374.519531 75.8125 C 374.34375 75.191406 374.109375 74.59375 373.804688 74.027344 C 373.503906 73.457031 373.140625 72.925781 372.722656 72.4375 C 372.304688 71.945312 371.835938 71.507812 371.320312 71.121094 C 370.804688 70.734375 370.253906 70.40625 369.667969 70.140625 C 369.078125 69.875 368.46875 69.675781 367.839844 69.542969 C 367.207031 69.410156 366.570312 69.34375 365.925781 69.351562 C 365.441406 69.355469 364.957031 69.398438 364.480469 69.480469 C 363.96875 68.625 363.347656 67.867188 362.613281 67.195312 C 361.878906 66.523438 361.0625 65.972656 360.167969 65.542969 C 359.273438 65.109375 358.335938 64.816406 357.355469 64.660156 C 356.371094 64.503906 355.390625 64.492188 354.402344 64.625 C 353.417969 64.753906 352.472656 65.023438 351.566406 65.433594 C 350.660156 65.84375 349.832031 66.371094 349.082031 67.023438 C 348.332031 67.675781 347.691406 68.421875 347.160156 69.257812 C 346.628906 70.097656 346.226562 70.996094 345.957031 71.953125 C 345.320312 71.757812 344.664062 71.660156 343.996094 71.660156 C 343.5625 71.660156 343.132812 71.703125 342.707031 71.789062 C 342.28125 71.871094 341.867188 71.996094 341.46875 72.164062 C 341.066406 72.328125 340.6875 72.535156 340.324219 72.773438 C 339.964844 73.015625 339.632812 73.289062 339.324219 73.597656 C 339.015625 73.902344 338.742188 74.238281 338.503906 74.597656 C 338.261719 74.957031 338.058594 75.339844 337.890625 75.742188 C 337.726562 76.140625 337.601562 76.554688 337.515625 76.980469 C 337.429688 77.40625 337.386719 77.835938 337.386719 78.269531 C 337.390625 78.738281 337.441406 79.203125 337.539062 79.660156 Z M 374.714844 79.628906 " fill-opacity="1" fill-rule="nonzero"/><path fill="#f0f0f0" d="M 142.0625 44.445312 C 142.195312 43.660156 142.265625 42.867188 142.269531 42.074219 C 142.269531 41.066406 142.171875 40.070312 141.976562 39.082031 C 141.777344 38.09375 141.488281 37.136719 141.101562 36.207031 C 140.71875 35.277344 140.246094 34.394531 139.6875 33.558594 C 139.128906 32.71875 138.492188 31.945312 137.78125 31.234375 C 137.066406 30.523438 136.292969 29.886719 135.457031 29.328125 C 134.621094 28.769531 133.738281 28.296875 132.808594 27.910156 C 131.878906 27.527344 130.917969 27.234375 129.933594 27.039062 C 128.945312 26.84375 127.949219 26.746094 126.941406 26.746094 C 126.109375 26.75 125.28125 26.824219 124.460938 26.964844 C 124.023438 26.238281 123.535156 25.542969 123 24.886719 C 122.464844 24.230469 121.882812 23.613281 121.253906 23.042969 C 120.628906 22.46875 119.964844 21.945312 119.261719 21.46875 C 118.558594 20.992188 117.824219 20.570312 117.058594 20.203125 C 116.296875 19.832031 115.507812 19.519531 114.699219 19.265625 C 113.886719 19.011719 113.0625 18.820312 112.226562 18.683594 C 111.386719 18.550781 110.542969 18.476562 109.695312 18.464844 C 108.847656 18.453125 108 18.503906 107.160156 18.617188 C 106.316406 18.730469 105.488281 18.902344 104.671875 19.132812 C 103.855469 19.367188 103.0625 19.65625 102.289062 20.003906 C 101.511719 20.355469 100.769531 20.757812 100.054688 21.214844 C 99.339844 21.671875 98.660156 22.175781 98.019531 22.734375 C 97.375 23.289062 96.777344 23.886719 96.222656 24.53125 C 95.671875 25.175781 95.164062 25.855469 94.710938 26.570312 C 94.253906 27.285156 93.855469 28.03125 93.507812 28.808594 C 93.160156 29.582031 92.871094 30.378906 92.640625 31.195312 C 92.167969 31.046875 91.691406 30.929688 91.203125 30.84375 C 90.714844 30.761719 90.226562 30.707031 89.730469 30.6875 C 89.238281 30.664062 88.742188 30.675781 88.25 30.71875 C 87.757812 30.765625 87.269531 30.839844 86.789062 30.945312 C 86.304688 31.054688 85.832031 31.191406 85.367188 31.363281 C 84.902344 31.53125 84.449219 31.730469 84.011719 31.957031 C 83.574219 32.1875 83.152344 32.441406 82.746094 32.726562 C 82.339844 33.007812 81.953125 33.316406 81.589844 33.652344 C 81.226562 33.984375 80.882812 34.34375 80.566406 34.722656 C 80.246094 35.101562 79.957031 35.496094 79.6875 35.914062 C 79.421875 36.332031 79.183594 36.761719 78.976562 37.210938 C 78.765625 37.660156 78.585938 38.121094 78.4375 38.589844 C 78.285156 39.0625 78.167969 39.542969 78.082031 40.027344 C 77.996094 40.515625 77.941406 41.003906 77.917969 41.5 C 77.894531 41.992188 77.90625 42.488281 77.945312 42.980469 C 77.988281 43.472656 78.0625 43.960938 78.167969 44.445312 Z M 142.0625 44.445312 " fill-opacity="1" fill-rule="nonzero"/><g clip-path="url(#b74464d506)"><path fill="#ebebeb" d="M 27.441406 260.675781 L 422.691406 260.675781 L 422.691406 260.875 L 27.441406 260.875 Z M 27.441406 260.675781 " fill-opacity="1" fill-rule="nonzero"/></g><path fill="#ebebeb" d="M 356.90625 273.398438 L 383.085938 273.398438 L 383.085938 273.59375 L 356.90625 273.59375 Z M 356.90625 273.398438 " fill-opacity="1" fill-rule="nonzero"/><path fill="#ebebeb" d="M 282.402344 275.546875 L 289.269531 275.546875 L 289.269531 275.746094 L 282.402344 275.746094 Z M 282.402344 275.546875 " fill-opacity="1" fill-rule="nonzero"/><path fill="#ebebeb" d="M 340.945312 266.0625 L 356.117188 266.0625 L 356.117188 266.257812 L 340.945312 266.257812 Z M 340.945312 266.0625 " fill-opacity="1" fill-rule="nonzero"/><path fill="#ebebeb" d="M 68.910156 267.390625 L 103.050781 267.390625 L 103.050781 267.585938 L 68.910156 267.585938 Z M 68.910156 267.390625 " fill-opacity="1" fill-rule="nonzero"/><path fill="#ebebeb" d="M 110.097656 267.390625 L 115.101562 267.390625 L 115.101562 267.585938 L 110.097656 267.585938 Z M 110.097656 267.390625 " fill-opacity="1" fill-rule="nonzero"/><path fill="#ebebeb" d="M 131.367188 270.726562 L 205.421875 270.726562 L 205.421875 270.921875 L 131.367188 270.921875 Z M 131.367188 270.726562 " fill-opacity="1" fill-rule="nonzero"/><path fill="#ebebeb" d="M 214.789062 225.421875 L 62.152344 225.421875 C 61.855469 225.421875 61.5625 225.390625 61.273438 225.332031 C 60.984375 225.273438 60.699219 225.1875 60.425781 225.074219 C 60.152344 224.960938 59.894531 224.824219 59.648438 224.65625 C 59.402344 224.492188 59.175781 224.304688 58.964844 224.097656 C 58.757812 223.886719 58.570312 223.660156 58.40625 223.414062 C 58.242188 223.167969 58.101562 222.90625 57.988281 222.632812 C 57.875 222.359375 57.789062 222.078125 57.734375 221.785156 C 57.675781 221.496094 57.644531 221.203125 57.644531 220.90625 L 57.644531 6.34375 C 57.648438 6.046875 57.679688 5.757812 57.738281 5.46875 C 57.800781 5.179688 57.886719 4.898438 58 4.628906 C 58.113281 4.355469 58.253906 4.101562 58.417969 3.855469 C 58.582031 3.613281 58.769531 3.386719 58.980469 3.179688 C 59.1875 2.972656 59.414062 2.785156 59.660156 2.621094 C 59.90625 2.460938 60.164062 2.320312 60.4375 2.210938 C 60.707031 2.097656 60.988281 2.011719 61.277344 1.953125 C 61.566406 1.898438 61.859375 1.867188 62.152344 1.867188 L 214.789062 1.867188 C 215.085938 1.867188 215.378906 1.898438 215.671875 1.953125 C 215.960938 2.011719 216.242188 2.097656 216.515625 2.210938 C 216.789062 2.324219 217.050781 2.464844 217.296875 2.628906 C 217.542969 2.792969 217.773438 2.980469 217.980469 3.191406 C 218.191406 3.398438 218.378906 3.628906 218.542969 3.875 C 218.707031 4.121094 218.847656 4.378906 218.960938 4.652344 C 219.074219 4.929688 219.160156 5.210938 219.21875 5.5 C 219.273438 5.792969 219.304688 6.085938 219.304688 6.382812 L 219.304688 220.90625 C 219.304688 221.203125 219.273438 221.496094 219.21875 221.789062 C 219.160156 222.078125 219.074219 222.359375 218.960938 222.632812 C 218.847656 222.910156 218.707031 223.167969 218.542969 223.414062 C 218.378906 223.660156 218.191406 223.890625 217.980469 224.097656 C 217.773438 224.308594 217.542969 224.496094 217.296875 224.660156 C 217.050781 224.824219 216.789062 224.964844 216.515625 225.078125 C 216.242188 225.191406 215.960938 225.277344 215.671875 225.335938 C 215.378906 225.390625 215.085938 225.421875 214.789062 225.421875 Z M 62.152344 2.027344 C 61.871094 2.027344 61.589844 2.054688 61.3125 2.109375 C 61.035156 2.164062 60.765625 2.246094 60.503906 2.355469 C 60.242188 2.464844 59.992188 2.597656 59.757812 2.757812 C 59.523438 2.914062 59.304688 3.09375 59.105469 3.292969 C 58.90625 3.492188 58.726562 3.710938 58.570312 3.945312 C 58.414062 4.183594 58.28125 4.429688 58.171875 4.691406 C 58.0625 4.953125 57.980469 5.222656 57.925781 5.5 C 57.871094 5.777344 57.84375 6.058594 57.84375 6.34375 L 57.84375 220.90625 C 57.84375 221.191406 57.871094 221.472656 57.925781 221.75 C 57.980469 222.027344 58.0625 222.296875 58.171875 222.558594 C 58.28125 222.820312 58.414062 223.066406 58.570312 223.304688 C 58.726562 223.539062 58.90625 223.757812 59.105469 223.957031 C 59.304688 224.15625 59.523438 224.335938 59.757812 224.492188 C 59.992188 224.652344 60.242188 224.785156 60.503906 224.894531 C 60.765625 225 61.035156 225.082031 61.3125 225.140625 C 61.589844 225.195312 61.871094 225.222656 62.152344 225.222656 L 214.789062 225.222656 C 215.074219 225.222656 215.355469 225.195312 215.632812 225.140625 C 215.910156 225.082031 216.179688 225 216.441406 224.894531 C 216.703125 224.785156 216.949219 224.652344 217.1875 224.492188 C 217.421875 224.335938 217.640625 224.15625 217.839844 223.957031 C 218.039062 223.757812 218.21875 223.539062 218.375 223.304688 C 218.535156 223.066406 218.667969 222.820312 218.773438 222.558594 C 218.882812 222.296875 218.964844 222.027344 219.023438 221.75 C 219.078125 221.472656 219.105469 221.191406 219.105469 220.90625 L 219.105469 6.34375 C 219.105469 6.058594 219.078125 5.777344 219.023438 5.5 C 218.964844 5.222656 218.882812 4.953125 218.773438 4.691406 C 218.667969 4.429688 218.535156 4.179688 218.375 3.945312 C 218.21875 3.710938 218.039062 3.492188 217.839844 3.292969 C 217.640625 3.09375 217.421875 2.914062 217.1875 2.753906 C 216.949219 2.597656 216.703125 2.464844 216.441406 2.355469 C 216.179688 2.246094 215.910156 2.164062 215.632812 2.109375 C 215.355469 2.054688 215.074219 2.027344 214.789062 2.027344 Z M 62.152344 2.027344 " fill-opacity="1" fill-rule="nonzero"/><path fill="#ebebeb" d="M 385.78125 225.421875 L 233.136719 225.421875 C 232.839844 225.421875 232.546875 225.390625 232.257812 225.332031 C 231.96875 225.273438 231.683594 225.1875 231.410156 225.074219 C 231.136719 224.960938 230.878906 224.824219 230.632812 224.65625 C 230.386719 224.492188 230.15625 224.304688 229.949219 224.097656 C 229.738281 223.886719 229.550781 223.660156 229.386719 223.414062 C 229.222656 223.167969 229.082031 222.90625 228.96875 222.632812 C 228.855469 222.359375 228.769531 222.078125 228.710938 221.789062 C 228.652344 221.496094 228.625 221.203125 228.625 220.90625 L 228.625 6.34375 C 228.625 6.046875 228.660156 5.757812 228.71875 5.46875 C 228.777344 5.179688 228.867188 4.898438 228.980469 4.628906 C 229.09375 4.355469 229.234375 4.097656 229.398438 3.855469 C 229.566406 3.609375 229.753906 3.386719 229.960938 3.179688 C 230.171875 2.96875 230.398438 2.785156 230.644531 2.621094 C 230.890625 2.460938 231.148438 2.320312 231.421875 2.210938 C 231.691406 2.097656 231.972656 2.011719 232.261719 1.953125 C 232.550781 1.898438 232.84375 1.867188 233.136719 1.867188 L 385.78125 1.867188 C 386.078125 1.867188 386.367188 1.898438 386.65625 1.957031 C 386.945312 2.015625 387.226562 2.097656 387.496094 2.210938 C 387.769531 2.324219 388.027344 2.460938 388.269531 2.625 C 388.515625 2.789062 388.742188 2.972656 388.949219 3.179688 C 389.160156 3.390625 389.34375 3.613281 389.511719 3.859375 C 389.675781 4.101562 389.8125 4.359375 389.925781 4.628906 C 390.042969 4.902344 390.128906 5.179688 390.1875 5.46875 C 390.246094 5.757812 390.277344 6.046875 390.28125 6.34375 L 390.28125 220.90625 C 390.28125 221.203125 390.253906 221.496094 390.195312 221.785156 C 390.136719 222.074219 390.050781 222.359375 389.9375 222.632812 C 389.824219 222.90625 389.6875 223.164062 389.523438 223.410156 C 389.359375 223.65625 389.171875 223.882812 388.964844 224.09375 C 388.753906 224.304688 388.527344 224.488281 388.28125 224.65625 C 388.039062 224.820312 387.777344 224.960938 387.503906 225.074219 C 387.234375 225.1875 386.949219 225.273438 386.660156 225.332031 C 386.371094 225.390625 386.078125 225.421875 385.78125 225.421875 Z M 233.136719 2.027344 C 232.855469 2.027344 232.574219 2.054688 232.296875 2.109375 C 232.019531 2.164062 231.75 2.246094 231.488281 2.355469 C 231.226562 2.464844 230.976562 2.597656 230.742188 2.753906 C 230.507812 2.914062 230.289062 3.09375 230.085938 3.292969 C 229.886719 3.492188 229.707031 3.710938 229.550781 3.945312 C 229.394531 4.179688 229.261719 4.429688 229.152344 4.691406 C 229.042969 4.953125 228.960938 5.222656 228.90625 5.5 C 228.851562 5.777344 228.820312 6.058594 228.820312 6.34375 L 228.820312 220.90625 C 228.820312 221.191406 228.851562 221.472656 228.90625 221.75 C 228.960938 222.027344 229.042969 222.296875 229.152344 222.558594 C 229.261719 222.820312 229.394531 223.066406 229.550781 223.304688 C 229.707031 223.539062 229.886719 223.757812 230.085938 223.957031 C 230.289062 224.15625 230.507812 224.335938 230.742188 224.492188 C 230.976562 224.652344 231.226562 224.785156 231.488281 224.894531 C 231.75 225 232.019531 225.082031 232.296875 225.140625 C 232.574219 225.195312 232.855469 225.222656 233.136719 225.222656 L 385.78125 225.222656 C 386.066406 225.222656 386.347656 225.195312 386.625 225.140625 C 386.902344 225.082031 387.171875 225 387.433594 224.894531 C 387.695312 224.785156 387.945312 224.652344 388.179688 224.492188 C 388.414062 224.335938 388.632812 224.15625 388.832031 223.957031 C 389.03125 223.757812 389.210938 223.539062 389.371094 223.304688 C 389.527344 223.066406 389.660156 222.820312 389.769531 222.558594 C 389.878906 222.296875 389.960938 222.027344 390.015625 221.75 C 390.070312 221.472656 390.097656 221.191406 390.097656 220.90625 L 390.097656 6.34375 C 390.097656 6.058594 390.070312 5.777344 390.015625 5.5 C 389.960938 5.222656 389.878906 4.953125 389.769531 4.691406 C 389.660156 4.429688 389.527344 4.179688 389.371094 3.945312 C 389.210938 3.710938 389.03125 3.492188 388.832031 3.292969 C 388.632812 3.09375 388.414062 2.914062 388.179688 2.753906 C 387.945312 2.597656 387.695312 2.464844 387.433594 2.355469 C 387.171875 2.246094 386.902344 2.164062 386.625 2.109375 C 386.347656 2.054688 386.066406 2.027344 385.78125 2.027344 Z M 233.136719 2.027344 " fill-opacity="1" fill-rule="nonzero"/><path fill="#f0f0f0" d="M 57.410156 237.800781 L 57.410156 185.246094 L 82.722656 185.246094 L 82.722656 170.875 L 94.839844 170.875 L 94.839844 128.640625 L 110.492188 112.988281 L 142.269531 112.988281 L 142.269531 158.246094 L 185.867188 158.246094 L 185.867188 167.183594 L 216.6875 167.183594 L 216.6875 155.4375 L 249.800781 155.4375 L 249.800781 146.585938 L 275.660156 146.585938 L 275.660156 94.160156 L 321.4375 94.160156 L 321.4375 127.566406 L 331.972656 127.566406 L 331.972656 139.667969 L 356.472656 139.667969 L 356.472656 159.515625 L 369.5625 159.515625 L 379.632812 169.589844 L 379.632812 179.832031 L 389.664062 179.832031 L 389.664062 237.800781 Z M 57.410156 237.800781 " fill-opacity="1" fill-rule="nonzero"/><path fill="#e6e6e6" d="M 88.238281 185.246094 L 83.15625 185.246094 L 82.722656 184.949219 L 82.722656 185.246094 L 57.410156 185.246094 L 57.410156 237.800781 L 88.238281 237.800781 Z M 88.238281 185.246094 " fill-opacity="1" fill-rule="nonzero"/><path fill="#e6e6e6" d="M 217.128906 159.265625 L 217.128906 167.183594 L 215.878906 167.183594 L 214.550781 175.660156 L 218.308594 237.800781 L 260.070312 237.800781 L 260.070312 155.4375 L 217.722656 155.4375 Z M 217.128906 159.265625 " fill-opacity="1" fill-rule="nonzero"/><path fill="#e6e6e6" d="M 314.351562 139.667969 L 314.351562 237.800781 L 390.097656 237.800781 L 390.097656 179.832031 L 380.066406 179.832031 L 380.066406 169.589844 L 369.996094 159.515625 L 356.90625 159.515625 L 356.90625 139.667969 Z M 314.351562 139.667969 " fill-opacity="1" fill-rule="nonzero"/><path fill="#ffffff" d="M 365.46875 164.84375 L 370.042969 164.84375 L 370.042969 169.421875 L 365.46875 169.421875 Z M 365.46875 164.84375 " fill-opacity="1" fill-rule="nonzero"/><path fill="#ffffff" d="M 357.378906 164.84375 L 361.957031 164.84375 L 361.957031 169.421875 L 357.378906 169.421875 Z M 357.378906 164.84375 " fill-opacity="1" fill-rule="nonzero"/><path fill="#ffffff" d="M 365.46875 173.375 L 370.042969 173.375 L 370.042969 177.953125 L 365.46875 177.953125 Z M 365.46875 173.375 " fill-opacity="1" fill-rule="nonzero"/><path fill="#ffffff" d="M 357.378906 173.375 L 361.957031 173.375 L 361.957031 177.953125 L 357.378906 177.953125 Z M 357.378906 173.375 " fill-opacity="1" fill-rule="nonzero"/><path fill="#ffffff" d="M 340.472656 143.359375 L 345.046875 143.359375 L 345.046875 147.9375 L 340.472656 147.9375 Z M 340.472656 143.359375 " fill-opacity="1" fill-rule="nonzero"/><path fill="#ffffff" d="M 332.382812 143.359375 L 336.960938 143.359375 L 336.960938 147.9375 L 332.382812 147.9375 Z M 332.382812 143.359375 " fill-opacity="1" fill-rule="nonzero"/><path fill="#ffffff" d="M 78.347656 192.65625 L 82.925781 192.65625 L 82.925781 197.230469 L 78.347656 197.230469 Z M 78.347656 192.65625 " fill-opacity="1" fill-rule="nonzero"/><path fill="#ffffff" d="M 70.261719 192.65625 L 74.839844 192.65625 L 74.839844 197.230469 L 70.261719 197.230469 Z M 70.261719 192.65625 " fill-opacity="1" fill-rule="nonzero"/><path fill="#ffffff" d="M 254.796875 168.890625 L 254.796875 173.46875 L 250.21875 173.46875 L 250.21875 168.890625 Z M 254.796875 168.890625 " fill-opacity="1" fill-rule="nonzero"/><path fill="#ffffff" d="M 254.796875 160.804688 L 254.796875 165.382812 L 250.21875 165.382812 L 250.21875 160.804688 Z M 254.796875 160.804688 " fill-opacity="1" fill-rule="nonzero"/><path fill="#f5f5f5" d="M 376.804688 287.429688 C 376.804688 287.574219 376.742188 287.722656 376.617188 287.867188 C 376.496094 288.011719 376.3125 288.160156 376.066406 288.304688 C 375.820312 288.449219 375.511719 288.597656 375.144531 288.742188 C 374.777344 288.886719 374.347656 289.03125 373.859375 289.171875 C 373.367188 289.316406 372.820312 289.460938 372.210938 289.601562 C 371.601562 289.746094 370.929688 289.886719 370.203125 290.027344 C 369.476562 290.164062 368.6875 290.304688 367.84375 290.441406 C 367 290.582031 366.097656 290.71875 365.136719 290.851562 C 364.175781 290.988281 363.160156 291.121094 362.085938 291.253906 C 361.015625 291.386719 359.886719 291.515625 358.703125 291.644531 C 357.523438 291.773438 356.285156 291.902344 354.996094 292.027344 C 353.707031 292.152344 352.367188 292.277344 350.972656 292.398438 C 349.578125 292.519531 348.132812 292.640625 346.640625 292.757812 C 345.144531 292.875 343.601562 292.992188 342.011719 293.105469 C 340.421875 293.21875 338.78125 293.328125 337.097656 293.4375 C 335.414062 293.546875 333.683594 293.652344 331.910156 293.753906 C 330.136719 293.859375 328.320312 293.960938 326.460938 294.058594 C 324.605469 294.15625 322.707031 294.253906 320.765625 294.34375 C 318.828125 294.4375 316.851562 294.527344 314.835938 294.617188 C 312.820312 294.703125 310.769531 294.785156 308.683594 294.867188 C 306.597656 294.949219 304.480469 295.027344 302.328125 295.101562 C 300.179688 295.179688 297.996094 295.25 295.785156 295.320312 C 293.570312 295.390625 291.332031 295.453125 289.0625 295.515625 C 286.796875 295.578125 284.503906 295.640625 282.1875 295.695312 C 279.871094 295.75 277.53125 295.804688 275.167969 295.851562 C 272.804688 295.902344 270.425781 295.949219 268.023438 295.992188 C 265.625 296.035156 263.207031 296.074219 260.773438 296.109375 C 258.339844 296.144531 255.894531 296.175781 253.433594 296.203125 C 250.972656 296.234375 248.503906 296.257812 246.023438 296.28125 C 243.539062 296.300781 241.050781 296.320312 238.554688 296.332031 C 236.058594 296.347656 233.558594 296.359375 231.054688 296.367188 C 228.546875 296.371094 226.042969 296.375 223.53125 296.375 C 221.023438 296.375 218.515625 296.371094 216.011719 296.367188 C 213.507812 296.359375 211.007812 296.347656 208.507812 296.332031 C 206.011719 296.320312 203.523438 296.300781 201.042969 296.28125 C 198.5625 296.257812 196.089844 296.234375 193.632812 296.203125 C 191.171875 296.175781 188.722656 296.144531 186.292969 296.109375 C 183.859375 296.074219 181.441406 296.035156 179.039062 295.992188 C 176.640625 295.949219 174.257812 295.902344 171.898438 295.851562 C 169.535156 295.804688 167.195312 295.75 164.878906 295.695312 C 162.5625 295.640625 160.269531 295.578125 158 295.515625 C 155.734375 295.453125 153.492188 295.390625 151.28125 295.320312 C 149.070312 295.25 146.886719 295.179688 144.734375 295.101562 C 142.585938 295.027344 140.464844 294.949219 138.378906 294.867188 C 136.292969 294.785156 134.246094 294.703125 132.230469 294.617188 C 130.214844 294.527344 128.238281 294.4375 126.300781 294.34375 C 124.359375 294.253906 122.460938 294.15625 120.601562 294.058594 C 118.746094 293.960938 116.929688 293.859375 115.15625 293.753906 C 113.378906 293.652344 111.652344 293.546875 109.96875 293.4375 C 108.28125 293.328125 106.644531 293.21875 105.054688 293.105469 C 103.460938 292.992188 101.917969 292.875 100.425781 292.757812 C 98.929688 292.640625 97.488281 292.519531 96.09375 292.398438 C 94.699219 292.277344 93.359375 292.152344 92.070312 292.027344 C 90.777344 291.902344 89.542969 291.773438 88.359375 291.644531 C 87.179688 291.515625 86.050781 291.386719 84.976562 291.253906 C 83.90625 291.121094 82.890625 290.988281 81.929688 290.851562 C 80.96875 290.71875 80.066406 290.582031 79.222656 290.441406 C 78.378906 290.304688 77.589844 290.164062 76.863281 290.027344 C 76.132812 289.886719 75.464844 289.746094 74.855469 289.601562 C 74.246094 289.460938 73.695312 289.316406 73.207031 289.171875 C 72.71875 289.03125 72.289062 288.886719 71.921875 288.742188 C 71.554688 288.597656 71.246094 288.449219 71 288.304688 C 70.753906 288.160156 70.570312 288.011719 70.449219 287.867188 C 70.324219 287.722656 70.261719 287.574219 70.261719 287.429688 C 70.261719 287.28125 70.324219 287.136719 70.449219 286.988281 C 70.570312 286.84375 70.753906 286.695312 71 286.550781 C 71.246094 286.40625 71.554688 286.257812 71.921875 286.113281 C 72.289062 285.96875 72.71875 285.824219 73.207031 285.683594 C 73.695312 285.539062 74.246094 285.394531 74.855469 285.253906 C 75.464844 285.113281 76.132812 284.96875 76.863281 284.832031 C 77.589844 284.691406 78.378906 284.550781 79.222656 284.414062 C 80.066406 284.273438 80.96875 284.140625 81.929688 284.003906 C 82.890625 283.867188 83.90625 283.734375 84.976562 283.601562 C 86.050781 283.46875 87.179688 283.339844 88.359375 283.210938 C 89.542969 283.082031 90.777344 282.953125 92.070312 282.828125 C 93.359375 282.703125 94.699219 282.578125 96.09375 282.457031 C 97.488281 282.335938 98.929688 282.214844 100.425781 282.097656 C 101.917969 281.980469 103.460938 281.863281 105.054688 281.75 C 106.644531 281.636719 108.28125 281.527344 109.96875 281.417969 C 111.652344 281.308594 113.378906 281.203125 115.15625 281.101562 C 116.929688 280.996094 118.746094 280.894531 120.601562 280.796875 C 122.460938 280.699219 124.359375 280.605469 126.300781 280.511719 C 128.238281 280.417969 130.214844 280.328125 132.230469 280.242188 C 134.246094 280.152344 136.292969 280.070312 138.378906 279.988281 C 140.464844 279.90625 142.585938 279.828125 144.734375 279.753906 C 146.886719 279.675781 149.070312 279.605469 151.28125 279.535156 C 153.492188 279.46875 155.734375 279.402344 158 279.339844 C 160.269531 279.277344 162.5625 279.214844 164.878906 279.160156 C 167.195312 279.105469 169.535156 279.050781 171.898438 279.003906 C 174.257812 278.953125 176.640625 278.90625 179.039062 278.863281 C 181.441406 278.820312 183.859375 278.785156 186.292969 278.746094 C 188.722656 278.710938 191.171875 278.679688 193.632812 278.652344 C 196.089844 278.621094 198.5625 278.597656 201.042969 278.578125 C 203.523438 278.554688 206.011719 278.535156 208.507812 278.523438 C 211.007812 278.507812 213.507812 278.496094 216.011719 278.492188 C 218.515625 278.484375 221.023438 278.480469 223.53125 278.480469 C 226.042969 278.480469 228.546875 278.484375 231.054688 278.488281 C 233.558594 278.496094 236.058594 278.507812 238.554688 278.523438 C 241.050781 278.535156 243.539062 278.554688 246.023438 278.578125 C 248.503906 278.597656 250.972656 278.621094 253.433594 278.652344 C 255.894531 278.679688 258.339844 278.710938 260.773438 278.746094 C 263.207031 278.785156 265.625 278.820312 268.023438 278.863281 C 270.425781 278.90625 272.804688 278.953125 275.167969 279.003906 C 277.53125 279.050781 279.871094 279.105469 282.1875 279.160156 C 284.503906 279.214844 286.796875 279.277344 289.0625 279.339844 C 291.332031 279.402344 293.570312 279.46875 295.785156 279.535156 C 297.996094 279.605469 300.179688 279.675781 302.328125 279.753906 C 304.480469 279.828125 306.597656 279.90625 308.683594 279.988281 C 310.769531 280.070312 312.820312 280.152344 314.835938 280.242188 C 316.851562 280.328125 318.828125 280.417969 320.765625 280.511719 C 322.707031 280.601562 324.605469 280.699219 326.460938 280.796875 C 328.320312 280.894531 330.136719 280.996094 331.910156 281.101562 C 333.683594 281.203125 335.414062 281.308594 337.097656 281.417969 C 338.78125 281.527344 340.421875 281.636719 342.011719 281.75 C 343.601562 281.863281 345.144531 281.980469 346.640625 282.097656 C 348.132812 282.214844 349.578125 282.335938 350.972656 282.457031 C 352.367188 282.578125 353.707031 282.703125 354.996094 282.828125 C 356.285156 282.953125 357.523438 283.082031 358.703125 283.210938 C 359.886719 283.339844 361.015625 283.46875 362.085938 283.601562 C 363.160156 283.734375 364.175781 283.867188 365.136719 284.003906 C 366.097656 284.140625 367 284.273438 367.84375 284.414062 C 368.6875 284.550781 369.476562 284.691406 370.203125 284.832031 C 370.929688 284.96875 371.601562 285.113281 372.210938 285.253906 C 372.820312 285.394531 373.367188 285.539062 373.859375 285.683594 C 374.347656 285.824219 374.777344 285.96875 375.144531 286.113281 C 375.511719 286.261719 375.820312 286.40625 376.066406 286.550781 C 376.3125 286.695312 376.496094 286.84375 376.617188 286.988281 C 376.742188 287.136719 376.804688 287.28125 376.804688 287.429688 Z M 376.804688 287.429688 " fill-opacity="1" fill-rule="nonzero"/><path fill="#407bff" d="M 334.867188 248.457031 L 378.050781 248.457031 L 378.050781 284.171875 L 334.867188 284.171875 Z M 334.867188 248.457031 " fill-opacity="1" fill-rule="nonzero"/><path fill="#ffffff" d="M 334.867188 248.457031 L 378.050781 248.457031 L 378.050781 284.171875 L 334.867188 284.171875 Z M 334.867188 248.457031 " fill-opacity="0.298" fill-rule="nonzero"/><path fill="#407bff" d="M 312.046875 248.457031 L 345.515625 248.457031 L 345.515625 284.171875 L 312.046875 284.171875 Z M 312.046875 248.457031 " fill-opacity="1" fill-rule="nonzero"/><path fill="#ffffff" d="M 312.046875 248.457031 L 345.515625 248.457031 L 345.515625 284.171875 L 312.046875 284.171875 Z M 312.046875 248.457031 " fill-opacity="0.098" fill-rule="nonzero"/><path fill="#ffffff" d="M 324.042969 248.457031 L 333.515625 248.457031 L 333.515625 259.570312 L 324.042969 259.570312 Z M 324.042969 248.457031 " fill-opacity="0.298" fill-rule="nonzero"/><path fill="#000000" d="M 359.378906 248.457031 L 368.851562 248.457031 L 368.851562 259.570312 L 359.378906 259.570312 Z M 359.378906 248.457031 " fill-opacity="0.098" fill-rule="nonzero"/><path fill="#ffffff" d="M 359.894531 269.476562 L 358.644531 269.476562 C 358.625 269.113281 358.625 268.75 358.644531 268.386719 C 358.644531 267.816406 359.078125 266.71875 359.871094 267.214844 C 360.117188 267.363281 360.398438 267.015625 360.15625 266.867188 C 359.976562 266.757812 359.78125 266.699219 359.570312 266.691406 C 359.359375 266.679688 359.160156 266.71875 358.972656 266.8125 C 358.78125 266.902344 358.625 267.03125 358.5 267.203125 C 358.378906 267.371094 358.300781 267.558594 358.273438 267.769531 C 358.167969 268.328125 358.140625 268.890625 358.195312 269.460938 L 357.476562 269.460938 C 357.191406 269.460938 357.113281 269.894531 357.402344 269.902344 L 358.195312 269.902344 C 358.195312 270.597656 358.195312 271.292969 358.195312 271.988281 C 358.195312 272.28125 358.644531 272.226562 358.644531 271.941406 C 358.644531 271.261719 358.644531 270.589844 358.644531 269.910156 L 359.816406 269.910156 C 360.109375 269.925781 360.1875 269.484375 359.894531 269.476562 Z M 359.894531 269.476562 " fill-opacity="1" fill-rule="nonzero"/><path fill="#ffffff" d="M 361.964844 268.496094 C 361.933594 268.488281 361.902344 268.488281 361.871094 268.496094 C 359.824219 268.34375 360.148438 271.695312 362.109375 271.65625 C 362.316406 271.628906 362.515625 271.558594 362.699219 271.457031 C 362.882812 271.355469 363.042969 271.21875 363.179688 271.058594 C 363.3125 270.894531 363.414062 270.714844 363.480469 270.511719 C 363.550781 270.3125 363.578125 270.105469 363.570312 269.894531 C 363.578125 269.6875 363.539062 269.492188 363.457031 269.300781 C 363.375 269.113281 363.253906 268.949219 363.097656 268.816406 C 362.945312 268.679688 362.765625 268.582031 362.566406 268.527344 C 362.371094 268.472656 362.167969 268.460938 361.964844 268.496094 Z M 362.273438 271.175781 C 360.796875 271.5625 360.320312 268.804688 361.839844 268.96875 C 361.886719 268.984375 361.933594 268.984375 361.980469 268.96875 C 363.402344 268.757812 363.402344 270.875 362.273438 271.175781 Z M 362.273438 271.175781 " fill-opacity="1" fill-rule="nonzero"/><path fill="#ffffff" d="M 366.851562 269.324219 C 366.242188 267.347656 363.175781 268.96875 364.050781 270.773438 C 364.164062 270.949219 364.304688 271.101562 364.46875 271.226562 C 364.636719 271.351562 364.820312 271.445312 365.023438 271.503906 C 365.222656 271.5625 365.429688 271.582031 365.636719 271.566406 C 365.84375 271.550781 366.042969 271.5 366.234375 271.414062 C 366.425781 271.339844 366.59375 271.226562 366.734375 271.078125 C 366.878906 270.925781 366.980469 270.753906 367.046875 270.558594 C 367.109375 270.363281 367.128906 270.160156 367.101562 269.957031 C 367.078125 269.753906 367.007812 269.5625 366.898438 269.390625 Z M 364.40625 270.457031 C 363.988281 269.253906 365.988281 268.085938 366.429688 269.507812 C 366.441406 269.558594 366.472656 269.601562 366.519531 269.625 C 367.292969 271.007812 364.835938 271.703125 364.40625 270.457031 Z M 364.40625 270.457031 " fill-opacity="1" fill-rule="nonzero"/><path fill="#ffffff" d="M 370.28125 271.507812 C 370.148438 269.6875 370.019531 267.871094 369.886719 266.0625 C 369.886719 265.769531 369.417969 265.824219 369.433594 266.109375 L 369.601562 268.402344 C 369.359375 268.320312 369.109375 268.300781 368.859375 268.335938 C 368.605469 268.375 368.375 268.464844 368.160156 268.605469 C 367.949219 268.75 367.78125 268.933594 367.65625 269.15625 C 367.53125 269.378906 367.460938 269.617188 367.441406 269.871094 C 367.378906 271.097656 368.804688 271.515625 369.816406 271.378906 L 369.816406 271.554688 C 369.855469 271.839844 370.304688 271.792969 370.28125 271.507812 Z M 367.910156 270.070312 C 367.898438 269.867188 367.929688 269.675781 368.011719 269.492188 C 368.09375 269.308594 368.214844 269.15625 368.371094 269.03125 C 368.53125 268.90625 368.707031 268.828125 368.90625 268.789062 C 369.105469 268.753906 369.300781 268.765625 369.492188 268.828125 C 369.535156 268.839844 369.582031 268.839844 369.625 268.828125 C 369.679688 269.523438 369.726562 270.21875 369.785156 270.921875 C 369.09375 271.015625 368.011719 270.875 367.894531 270.070312 Z M 367.910156 270.070312 " fill-opacity="1" fill-rule="nonzero"/><path fill="#263238" d="M 118.363281 33.890625 L 225.042969 33.890625 C 225.820312 33.890625 226.59375 33.96875 227.355469 34.117188 C 228.121094 34.269531 228.859375 34.496094 229.582031 34.792969 C 230.300781 35.089844 230.984375 35.457031 231.628906 35.890625 C 232.277344 36.320312 232.875 36.8125 233.425781 37.363281 C 233.976562 37.914062 234.46875 38.511719 234.902344 39.160156 C 235.335938 39.808594 235.699219 40.492188 235.996094 41.210938 C 236.296875 41.929688 236.519531 42.671875 236.671875 43.433594 C 236.824219 44.199219 236.898438 44.96875 236.898438 45.75 L 236.898438 268.304688 C 236.898438 269.085938 236.824219 269.855469 236.671875 270.617188 C 236.519531 271.382812 236.296875 272.125 235.996094 272.84375 C 235.699219 273.5625 235.335938 274.246094 234.902344 274.894531 C 234.46875 275.539062 233.976562 276.140625 233.425781 276.691406 C 232.875 277.242188 232.277344 277.730469 231.628906 278.164062 C 230.984375 278.597656 230.300781 278.960938 229.582031 279.261719 C 228.859375 279.558594 228.121094 279.785156 227.355469 279.933594 C 226.59375 280.085938 225.820312 280.164062 225.042969 280.164062 L 118.363281 280.164062 C 117.585938 280.164062 116.816406 280.085938 116.050781 279.933594 C 115.289062 279.785156 114.546875 279.558594 113.828125 279.261719 C 113.109375 278.960938 112.425781 278.597656 111.777344 278.164062 C 111.128906 277.730469 110.53125 277.242188 109.980469 276.691406 C 109.429688 276.140625 108.9375 275.539062 108.503906 274.894531 C 108.074219 274.246094 107.707031 273.5625 107.410156 272.84375 C 107.113281 272.125 106.886719 271.382812 106.734375 270.617188 C 106.582031 269.855469 106.507812 269.085938 106.507812 268.304688 L 106.507812 45.75 C 106.507812 44.96875 106.582031 44.199219 106.734375 43.433594 C 106.886719 42.671875 107.113281 41.929688 107.410156 41.210938 C 107.707031 40.492188 108.074219 39.808594 108.503906 39.160156 C 108.9375 38.511719 109.429688 37.914062 109.980469 37.363281 C 110.53125 36.8125 111.128906 36.320312 111.777344 35.890625 C 112.425781 35.457031 113.109375 35.089844 113.828125 34.792969 C 114.546875 34.496094 115.289062 34.269531 116.050781 34.117188 C 116.816406 33.96875 117.585938 33.890625 118.363281 33.890625 Z M 118.363281 33.890625 " fill-opacity="1" fill-rule="nonzero"/><path fill="#407bff" d="M 114.941406 50.308594 L 228.472656 50.308594 L 228.472656 248.378906 L 114.941406 248.378906 Z M 114.941406 50.308594 " fill-opacity="1" fill-rule="nonzero"/><path fill="#ffffff" d="M 114.941406 228.742188 L 228.472656 228.742188 L 228.472656 248.371094 L 114.941406 248.371094 Z M 114.941406 228.742188 " fill-opacity="0.298" fill-rule="nonzero"/><path fill="#ffffff" d="M 228.472656 131.808594 C 199.613281 160.511719 146.167969 214.203125 114.941406 245.640625 L 114.941406 248.410156 L 178.378906 248.410156 L 228.472656 198.324219 Z M 228.472656 131.808594 " fill-opacity="0.098" fill-rule="nonzero"/><path fill="#ffffff" d="M 114.941406 149.914062 L 214.542969 50.308594 L 167.96875 50.308594 C 155.636719 62.546875 134.570312 83.652344 114.941406 103.351562 Z M 114.941406 149.914062 " fill-opacity="0.098" fill-rule="nonzero"/><path fill="#ffffff" d="M 114.941406 191.546875 L 228.472656 78.015625 L 228.472656 53.722656 L 114.941406 167.25 Z M 114.941406 191.546875 " fill-opacity="0.098" fill-rule="nonzero"/><path fill="#000000" d="M 114.941406 50.308594 L 228.472656 50.308594 L 228.472656 59.242188 L 114.941406 59.242188 Z M 114.941406 50.308594 " fill-opacity="0.2" fill-rule="nonzero"/><path fill="#407bff" d="M 179.359375 260.722656 C 179.441406 261.226562 179.472656 261.730469 179.453125 262.238281 C 179.4375 262.746094 179.367188 263.246094 179.25 263.742188 C 179.136719 264.234375 178.972656 264.714844 178.761719 265.175781 C 178.550781 265.640625 178.296875 266.078125 178 266.488281 C 177.699219 266.902344 177.367188 267.28125 176.996094 267.625 C 176.621094 267.972656 176.222656 268.28125 175.789062 268.546875 C 175.355469 268.8125 174.902344 269.035156 174.425781 269.214844 C 173.949219 269.390625 173.460938 269.519531 172.960938 269.601562 C 172.457031 269.683594 171.953125 269.714844 171.445312 269.699219 C 170.9375 269.679688 170.4375 269.613281 169.941406 269.496094 C 169.449219 269.378906 168.96875 269.214844 168.507812 269.003906 C 168.042969 268.792969 167.605469 268.539062 167.195312 268.242188 C 166.78125 267.945312 166.402344 267.609375 166.058594 267.238281 C 165.710938 266.867188 165.402344 266.464844 165.136719 266.03125 C 164.871094 265.601562 164.648438 265.144531 164.46875 264.671875 C 164.292969 264.195312 164.164062 263.707031 164.082031 263.203125 C 164 262.703125 163.96875 262.199219 163.984375 261.691406 C 164.003906 261.183594 164.070312 260.679688 164.1875 260.1875 C 164.304688 259.691406 164.46875 259.214844 164.679688 258.75 C 164.890625 258.289062 165.144531 257.851562 165.441406 257.4375 C 165.738281 257.027344 166.074219 256.648438 166.445312 256.300781 C 166.816406 255.953125 167.21875 255.648438 167.652344 255.378906 C 168.082031 255.113281 168.539062 254.890625 169.011719 254.714844 C 169.488281 254.535156 169.976562 254.40625 170.480469 254.324219 C 170.980469 254.242188 171.484375 254.210938 171.992188 254.230469 C 172.5 254.246094 173.003906 254.316406 173.496094 254.429688 C 173.992188 254.546875 174.46875 254.710938 174.933594 254.921875 C 175.394531 255.132812 175.832031 255.386719 176.246094 255.683594 C 176.65625 255.980469 177.035156 256.316406 177.382812 256.6875 C 177.730469 257.058594 178.035156 257.460938 178.300781 257.894531 C 178.570312 258.328125 178.792969 258.78125 178.96875 259.257812 C 179.148438 259.734375 179.277344 260.222656 179.359375 260.722656 Z M 179.359375 260.722656 " fill-opacity="1" fill-rule="nonzero"/><g mask="url(#74af5aabce)"><g transform="matrix(1, 0, 0, 1, 118, 51)"><g clip-path="url(#00d2bd3d64)"><path fill="#ffffff" d="M 10.933594 5.824219 L 9.21875 5.824219 L 9.21875 3.53125 L 10.933594 3.53125 Z M 10.933594 5.824219 " fill-opacity="0.6" fill-rule="nonzero"/><path fill="#ffffff" d="M 8.136719 5.824219 L 6.421875 5.824219 L 6.421875 2.773438 L 8.136719 2.773438 Z M 8.136719 5.824219 " fill-opacity="0.6" fill-rule="nonzero"/><path fill="#ffffff" d="M 5.335938 5.824219 L 3.621094 5.824219 L 3.621094 2.003906 L 5.335938 2.003906 Z M 5.335938 5.824219 " fill-opacity="0.6" fill-rule="nonzero"/><g clip-path="url(#22c55fdc3c)"><path fill="#ffffff" d="M 2.539062 5.824219 L 0.824219 5.824219 L 0.824219 1.238281 L 2.539062 1.238281 Z M 2.539062 5.824219 " fill-opacity="0.6" fill-rule="nonzero"/></g></g></g></g><path fill="#ffffff" d="M 215.40625 53.691406 L 216.425781 53.691406 L 216.425781 55.984375 L 215.40625 55.984375 Z M 215.40625 53.691406 " fill-opacity="0.6" fill-rule="nonzero"/><path fill="#ffffff" d="M 225.25 56.824219 L 217.128906 56.824219 L 217.128906 52.863281 L 225.25 52.863281 Z M 225.25 56.824219 " fill-opacity="0.6" fill-rule="nonzero"/><path fill="#ffffff" d="M 177.359375 168.664062 C 174.757812 166.292969 171.707031 169.453125 171.707031 169.453125 C 171.707031 169.453125 168.664062 166.292969 166.054688 168.625 C 162.339844 171.953125 167.738281 177.902344 171.707031 179.097656 C 175.675781 177.9375 181.074219 171.984375 177.359375 168.664062 Z M 177.359375 168.664062 " fill-opacity="0.4" fill-rule="nonzero"/><path fill="#ffffff" d="M 204.222656 185.265625 L 139.195312 185.265625 C 138.707031 185.265625 138.226562 185.3125 137.746094 185.40625 C 137.269531 185.5 136.804688 185.640625 136.355469 185.828125 C 135.90625 186.015625 135.480469 186.242188 135.074219 186.511719 C 134.671875 186.785156 134.296875 187.089844 133.953125 187.433594 C 133.605469 187.78125 133.300781 188.152344 133.027344 188.558594 C 132.757812 188.964844 132.53125 189.390625 132.34375 189.839844 C 132.15625 190.289062 132.015625 190.753906 131.921875 191.230469 C 131.828125 191.710938 131.78125 192.191406 131.78125 192.679688 C 131.78125 193.164062 131.828125 193.648438 131.921875 194.125 C 132.015625 194.601562 132.15625 195.066406 132.34375 195.515625 C 132.53125 195.964844 132.757812 196.394531 133.027344 196.796875 C 133.300781 197.203125 133.605469 197.578125 133.953125 197.921875 C 134.296875 198.265625 134.671875 198.574219 135.074219 198.84375 C 135.480469 199.113281 135.90625 199.34375 136.355469 199.527344 C 136.804688 199.714844 137.269531 199.855469 137.746094 199.949219 C 138.226562 200.046875 138.707031 200.09375 139.195312 200.09375 L 204.222656 200.09375 C 204.707031 200.09375 205.191406 200.046875 205.667969 199.949219 C 206.144531 199.855469 206.609375 199.714844 207.058594 199.527344 C 207.507812 199.34375 207.9375 199.113281 208.339844 198.84375 C 208.746094 198.574219 209.121094 198.265625 209.464844 197.921875 C 209.808594 197.578125 210.117188 197.203125 210.386719 196.796875 C 210.65625 196.394531 210.886719 195.964844 211.070312 195.515625 C 211.257812 195.066406 211.398438 194.601562 211.492188 194.125 C 211.589844 193.648438 211.636719 193.164062 211.636719 192.679688 C 211.636719 192.191406 211.589844 191.710938 211.492188 191.230469 C 211.398438 190.753906 211.257812 190.289062 211.070312 189.839844 C 210.886719 189.390625 210.65625 188.964844 210.386719 188.558594 C 210.117188 188.152344 209.808594 187.78125 209.464844 187.433594 C 209.121094 187.089844 208.746094 186.785156 208.339844 186.511719 C 207.9375 186.242188 207.507812 186.015625 207.058594 185.828125 C 206.609375 185.640625 206.144531 185.5 205.667969 185.40625 C 205.191406 185.3125 204.707031 185.265625 204.222656 185.265625 Z M 204.222656 185.265625 " fill-opacity="1" fill-rule="nonzero"/><path fill="#e0e0e0" d="M 150.261719 196.625 L 150.261719 188.757812 L 153.132812 188.757812 C 153.710938 188.746094 154.269531 188.851562 154.808594 189.074219 C 155.269531 189.265625 155.667969 189.546875 156.007812 189.910156 C 156.335938 190.277344 156.574219 190.695312 156.726562 191.160156 C 157.085938 192.214844 157.085938 193.269531 156.726562 194.324219 C 156.554688 194.792969 156.292969 195.207031 155.9375 195.5625 C 155.585938 195.910156 155.183594 196.171875 154.726562 196.355469 C 154.21875 196.550781 153.691406 196.644531 153.148438 196.640625 Z M 155.40625 192.671875 C 155.40625 192.316406 155.359375 191.972656 155.257812 191.636719 C 155.160156 191.339844 155.011719 191.078125 154.808594 190.84375 C 154.601562 190.609375 154.359375 190.433594 154.070312 190.316406 C 153.757812 190.179688 153.433594 190.117188 153.089844 190.125 L 151.769531 190.125 L 151.769531 195.304688 L 153.132812 195.304688 C 153.476562 195.308594 153.808594 195.242188 154.125 195.105469 C 154.40625 194.976562 154.648438 194.796875 154.847656 194.558594 C 155.050781 194.3125 155.199219 194.035156 155.296875 193.730469 C 155.386719 193.386719 155.421875 193.035156 155.40625 192.679688 Z M 155.40625 192.671875 " fill-opacity="1" fill-rule="nonzero"/><path fill="#e0e0e0" d="M 161.4375 196.679688 C 160.886719 196.6875 160.359375 196.574219 159.859375 196.339844 C 159.398438 196.121094 159 195.820312 158.664062 195.4375 C 157.96875 194.65625 157.617188 193.742188 157.613281 192.695312 C 157.609375 192.171875 157.707031 191.667969 157.90625 191.183594 C 158.089844 190.710938 158.351562 190.285156 158.695312 189.910156 C 159.042969 189.539062 159.449219 189.246094 159.914062 189.035156 C 160.398438 188.808594 160.90625 188.703125 161.4375 188.710938 C 161.980469 188.703125 162.496094 188.816406 162.980469 189.058594 C 163.449219 189.292969 163.855469 189.609375 164.199219 190.007812 C 164.539062 190.386719 164.804688 190.816406 164.988281 191.296875 C 165.175781 191.761719 165.265625 192.246094 165.265625 192.75 C 165.269531 193.269531 165.171875 193.769531 164.980469 194.25 C 164.792969 194.722656 164.53125 195.144531 164.191406 195.515625 C 163.847656 195.890625 163.445312 196.179688 162.980469 196.386719 C 162.488281 196.601562 161.976562 196.699219 161.4375 196.679688 Z M 159.179688 192.726562 C 159.179688 193.0625 159.230469 193.386719 159.335938 193.707031 C 159.433594 194.015625 159.582031 194.296875 159.777344 194.550781 C 159.980469 194.792969 160.214844 194.988281 160.492188 195.136719 C 160.792969 195.289062 161.117188 195.363281 161.453125 195.359375 C 161.796875 195.363281 162.121094 195.285156 162.425781 195.128906 C 162.707031 194.980469 162.945312 194.777344 163.136719 194.527344 C 163.332031 194.273438 163.476562 193.988281 163.574219 193.683594 C 163.675781 193.371094 163.722656 193.054688 163.722656 192.726562 C 163.722656 192.386719 163.671875 192.058594 163.566406 191.738281 C 163.46875 191.429688 163.316406 191.144531 163.113281 190.890625 C 162.921875 190.648438 162.683594 190.453125 162.402344 190.316406 C 161.761719 190.007812 161.117188 190.007812 160.476562 190.316406 C 160.195312 190.464844 159.957031 190.667969 159.761719 190.914062 C 159.570312 191.171875 159.425781 191.449219 159.328125 191.753906 C 159.234375 192.058594 159.183594 192.375 159.179688 192.695312 Z M 159.179688 192.726562 " fill-opacity="1" fill-rule="nonzero"/><path fill="#e0e0e0" d="M 167.929688 191.585938 L 167.929688 196.625 L 166.410156 196.625 L 166.410156 188.757812 L 167.589844 188.757812 L 171.644531 193.917969 L 171.644531 188.773438 L 173.164062 188.773438 L 173.164062 196.625 L 171.9375 196.625 Z M 167.929688 191.585938 " fill-opacity="1" fill-rule="nonzero"/><path fill="#e0e0e0" d="M 177.003906 188.757812 L 178.339844 188.757812 L 181.304688 196.625 L 179.722656 196.625 L 178.996094 194.664062 L 176.277344 194.664062 L 175.566406 196.625 L 173.984375 196.625 Z M 178.75 193.585938 L 177.675781 190.496094 L 176.554688 193.585938 Z M 178.75 193.585938 " fill-opacity="1" fill-rule="nonzero"/><path fill="#e0e0e0" d="M 187.21875 190.101562 L 184.75 190.101562 L 184.75 196.625 L 183.25 196.625 L 183.25 190.101562 L 180.757812 190.101562 L 180.757812 188.757812 L 187.242188 188.757812 Z M 187.21875 190.101562 " fill-opacity="1" fill-rule="nonzero"/><path fill="#e0e0e0" d="M 193.597656 195.28125 L 193.597656 196.625 L 188.183594 196.625 L 188.183594 188.757812 L 193.492188 188.757812 L 193.492188 190.101562 L 189.699219 190.101562 L 189.699219 191.992188 L 192.980469 191.992188 L 192.980469 193.230469 L 189.699219 193.230469 L 189.699219 195.28125 Z M 193.597656 195.28125 " fill-opacity="1" fill-rule="nonzero"/><path fill="#263238" d="M 236.90625 104.152344 L 213.089844 107.542969 L 219.3125 151.792969 L 236.90625 150.007812 Z M 236.90625 104.152344 " fill-opacity="0.298" fill-rule="nonzero"/><path fill="#ffffff" d="M 216.648438 115.667969 C 216.648438 117.105469 216.578125 118.535156 216.4375 119.964844 C 216.296875 121.394531 216.085938 122.8125 215.804688 124.222656 C 215.523438 125.628906 215.175781 127.019531 214.757812 128.394531 C 214.34375 129.769531 213.859375 131.117188 213.308594 132.445312 C 212.761719 133.773438 212.148438 135.066406 211.472656 136.335938 C 210.792969 137.601562 210.058594 138.832031 209.257812 140.023438 C 208.460938 141.21875 207.605469 142.371094 206.695312 143.480469 C 205.785156 144.589844 204.820312 145.652344 203.808594 146.667969 C 202.792969 147.683594 201.730469 148.648438 200.617188 149.558594 C 199.507812 150.46875 198.355469 151.324219 197.164062 152.121094 C 195.96875 152.917969 194.738281 153.65625 193.472656 154.332031 C 192.207031 155.007812 190.910156 155.621094 189.582031 156.171875 C 188.257812 156.722656 186.90625 157.203125 185.53125 157.621094 C 184.160156 158.039062 182.769531 158.386719 181.359375 158.667969 C 179.949219 158.945312 178.53125 159.15625 177.105469 159.296875 C 175.675781 159.4375 174.242188 159.507812 172.804688 159.507812 C 171.371094 159.507812 169.9375 159.4375 168.507812 159.296875 C 167.082031 159.15625 165.660156 158.945312 164.253906 158.667969 C 162.84375 158.386719 161.453125 158.039062 160.078125 157.621094 C 158.707031 157.203125 157.355469 156.722656 156.027344 156.171875 C 154.703125 155.621094 153.40625 155.007812 152.140625 154.332031 C 150.875 153.65625 149.644531 152.917969 148.449219 152.121094 C 147.253906 151.324219 146.105469 150.46875 144.992188 149.558594 C 143.882812 148.648438 142.820312 147.683594 141.804688 146.667969 C 140.789062 145.652344 139.828125 144.589844 138.917969 143.480469 C 138.007812 142.371094 137.152344 141.21875 136.355469 140.023438 C 135.554688 138.832031 134.820312 137.601562 134.140625 136.335938 C 133.464844 135.066406 132.851562 133.773438 132.300781 132.445312 C 131.753906 131.117188 131.269531 129.769531 130.851562 128.394531 C 130.4375 127.019531 130.085938 125.628906 129.808594 124.222656 C 129.527344 122.8125 129.316406 121.394531 129.175781 119.964844 C 129.035156 118.535156 128.964844 117.105469 128.964844 115.667969 C 128.964844 114.230469 129.035156 112.800781 129.175781 111.371094 C 129.316406 109.941406 129.527344 108.523438 129.808594 107.113281 C 130.085938 105.707031 130.4375 104.316406 130.851562 102.941406 C 131.269531 101.566406 131.753906 100.21875 132.300781 98.890625 C 132.851562 97.5625 133.464844 96.269531 134.140625 95 C 134.820312 93.734375 135.554688 92.503906 136.355469 91.3125 C 137.152344 90.117188 138.007812 88.964844 138.917969 87.855469 C 139.828125 86.746094 140.789062 85.683594 141.804688 84.667969 C 142.820312 83.652344 143.882812 82.6875 144.992188 81.777344 C 146.105469 80.867188 147.253906 80.011719 148.449219 79.214844 C 149.644531 78.417969 150.875 77.679688 152.140625 77.003906 C 153.40625 76.328125 154.703125 75.714844 156.027344 75.164062 C 157.355469 74.613281 158.707031 74.132812 160.078125 73.714844 C 161.453125 73.296875 162.84375 72.949219 164.253906 72.667969 C 165.660156 72.390625 167.082031 72.179688 168.507812 72.039062 C 169.9375 71.898438 171.371094 71.828125 172.804688 71.828125 C 174.242188 71.828125 175.675781 71.898438 177.105469 72.039062 C 178.53125 72.179688 179.949219 72.390625 181.359375 72.667969 C 182.769531 72.949219 184.160156 73.296875 185.53125 73.714844 C 186.90625 74.132812 188.257812 74.613281 189.582031 75.164062 C 190.910156 75.714844 192.207031 76.328125 193.472656 77.003906 C 194.738281 77.679688 195.96875 78.417969 197.164062 79.214844 C 198.355469 80.011719 199.507812 80.867188 200.617188 81.777344 C 201.730469 82.6875 202.792969 83.652344 203.808594 84.667969 C 204.820312 85.683594 205.785156 86.746094 206.695312 87.855469 C 207.605469 88.964844 208.460938 90.117188 209.257812 91.3125 C 210.058594 92.503906 210.792969 93.734375 211.472656 95 C 212.148438 96.269531 212.761719 97.5625 213.308594 98.890625 C 213.859375 100.21875 214.34375 101.566406 214.757812 102.941406 C 215.175781 104.316406 215.523438 105.707031 215.804688 107.113281 C 216.085938 108.523438 216.296875 109.941406 216.4375 111.371094 C 216.578125 112.800781 216.648438 114.230469 216.648438 115.667969 Z M 216.648438 115.667969 " fill-opacity="0.698" fill-rule="nonzero"/><path fill="#e4897b" d="M 188.53125 88.863281 C 188.53125 88.863281 197.484375 102.109375 202.511719 102.648438 C 207.539062 103.1875 227.207031 86.269531 227.207031 86.269531 L 230.542969 89.15625 C 230.542969 89.15625 211.832031 109.707031 204.023438 110.910156 C 196.214844 112.109375 181.367188 96.632812 181.367188 96.632812 Z M 188.53125 88.863281 " fill-opacity="1" fill-rule="nonzero"/><path fill="#407bff" d="M 186.394531 89.851562 C 186.394531 89.851562 189.558594 86.75 193.90625 92.136719 C 198.253906 97.519531 200.039062 98.617188 200.039062 98.617188 L 188.972656 109.421875 C 188.972656 109.421875 182.464844 92.726562 186.394531 89.851562 Z M 186.394531 89.851562 " fill-opacity="1" fill-rule="nonzero"/><path fill="#e4897b" d="M 225.652344 85.042969 C 225.652344 85.042969 226.039062 80.070312 227.191406 79.753906 C 228.347656 79.441406 227.9375 83.117188 227.9375 83.117188 C 227.9375 83.117188 234.023438 79.398438 235.246094 79.730469 C 236.472656 80.0625 236.277344 82.46875 236.039062 83.117188 C 234.179688 88.648438 227.539062 90.941406 227.539062 90.941406 L 224.859375 88.410156 Z M 225.652344 85.042969 " fill-opacity="1" fill-rule="nonzero"/><path fill="#263238" d="M 180.007812 75.707031 C 180.007812 75.707031 186.117188 85.890625 184.246094 92.308594 C 182.371094 98.726562 172.734375 92.957031 172.734375 92.957031 L 172.855469 80.308594 Z M 180.007812 75.707031 " fill-opacity="1" fill-rule="nonzero"/><path fill="#263238" d="M 163.621094 58.160156 C 163.621094 58.160156 154.585938 62.734375 158.132812 78.839844 C 164.078125 105.835938 172.855469 94.648438 172.855469 94.648438 C 172.855469 94.648438 172.464844 84.007812 168.902344 78.839844 C 165.335938 73.667969 166.078125 66.292969 166.078125 66.292969 Z M 163.621094 58.160156 " fill-opacity="1" fill-rule="nonzero"/><path fill="#407bff" d="M 189.824219 129.476562 L 162.734375 131.851562 C 162.472656 125.117188 161.511719 118.484375 159.851562 111.953125 C 159.203125 109.359375 158.394531 106.457031 157.351562 103.113281 C 156.789062 101.320312 156.175781 99.398438 155.488281 97.335938 C 154.972656 95.753906 154.410156 94.101562 153.792969 92.339844 C 157.480469 91.164062 161.230469 90.253906 165.042969 89.613281 C 169.066406 88.894531 173.117188 88.464844 177.203125 88.332031 C 182.472656 88.285156 188.53125 88.878906 188.53125 88.878906 C 188.53125 88.878906 189.390625 89.082031 189.9375 94.671875 C 190.425781 99.890625 190.910156 110.394531 189.824219 129.476562 Z M 189.824219 129.476562 " fill-opacity="1" fill-rule="nonzero"/><path fill="#ffffff" d="M 189.824219 129.476562 L 162.734375 131.851562 C 162.472656 125.117188 161.511719 118.484375 159.851562 111.953125 C 159.203125 109.359375 158.394531 106.457031 157.351562 103.113281 C 156.789062 101.320312 156.175781 99.398438 155.488281 97.335938 C 154.972656 95.753906 154.410156 94.101562 153.792969 92.339844 C 157.480469 91.164062 161.230469 90.253906 165.042969 89.613281 C 169.066406 88.894531 173.117188 88.464844 177.203125 88.332031 C 182.472656 88.285156 188.53125 88.878906 188.53125 88.878906 C 188.53125 88.878906 189.390625 89.082031 189.9375 94.671875 C 190.425781 99.890625 190.910156 110.394531 189.824219 129.476562 Z M 189.824219 129.476562 " fill-opacity="0.2" fill-rule="nonzero"/><path fill="#000000" d="M 162.617188 129.785156 C 166.957031 128.09375 181.265625 121.089844 181.265625 121.089844 L 162.292969 125.375 C 162.378906 126.8125 162.5 128.269531 162.617188 129.785156 Z M 162.617188 129.785156 " fill-opacity="0.2" fill-rule="nonzero"/><path fill="#e4897b" d="M 174.972656 94.292969 C 168.292969 93.4375 166.277344 90.59375 166.277344 90.59375 C 170.515625 86.59375 166.996094 79.667969 166.996094 79.667969 L 175.027344 81.171875 C 174.84375 82.292969 174.742188 83.417969 174.71875 84.554688 C 174.65625 89.429688 176.863281 89.480469 176.863281 89.480469 C 178.277344 92.117188 174.972656 94.292969 174.972656 94.292969 Z M 174.972656 94.292969 " fill-opacity="1" fill-rule="nonzero"/><path fill="#000000" d="M 175.035156 81.171875 C 174.851562 82.292969 174.75 83.417969 174.726562 84.554688 C 169.296875 84.554688 167.003906 79.667969 167.003906 79.667969 Z M 175.035156 81.171875 " fill-opacity="0.2" fill-rule="nonzero"/><path fill="#e4897b" d="M 171.429688 58.671875 C 178.417969 58.285156 180 61.636719 180.917969 68.808594 C 182.054688 77.773438 180.441406 84.5625 171.605469 83.125 C 161.90625 81.542969 159.1875 66.183594 165.019531 60.308594 C 166.386719 58.917969 169.210938 58.785156 171.429688 58.671875 Z M 171.429688 58.671875 " fill-opacity="1" fill-rule="nonzero"/><path fill="#de5753" d="M 176.402344 69.714844 C 177.019531 70.730469 177.75 71.660156 178.59375 72.5 C 178.402344 72.804688 178.144531 73.039062 177.820312 73.199219 C 177.5 73.359375 177.15625 73.425781 176.796875 73.390625 Z M 176.402344 69.714844 " fill-opacity="1" fill-rule="nonzero"/><path fill="#263238" d="M 172.175781 68.910156 C 172.476562 68.757812 172.703125 68.527344 172.855469 68.222656 L 171.644531 68.808594 C 171.464844 68.914062 171.328125 69.058594 171.242188 69.25 C 171.15625 69.441406 171.132812 69.636719 171.171875 69.84375 C 171.210938 70.417969 171.558594 70.855469 171.960938 70.832031 C 172.363281 70.808594 172.617188 70.308594 172.578125 69.738281 C 172.558594 69.40625 172.421875 69.132812 172.175781 68.910156 Z M 172.175781 68.910156 " fill-opacity="1" fill-rule="nonzero"/><path fill="#263238" d="M 178.957031 68.269531 C 179.257812 68.117188 179.488281 67.886719 179.636719 67.582031 L 178.433594 68.167969 C 178.253906 68.273438 178.121094 68.421875 178.03125 68.613281 C 177.941406 68.804688 177.917969 69.003906 177.953125 69.210938 C 178 69.789062 178.347656 70.222656 178.742188 70.191406 C 179.136719 70.160156 179.398438 69.675781 179.351562 69.101562 C 179.339844 68.765625 179.210938 68.488281 178.957031 68.269531 Z M 178.957031 68.269531 " fill-opacity="1" fill-rule="nonzero"/><path stroke-linecap="round" transform="matrix(0.7905, 0, 0, 0.7905, 27.441399, -41.609761)" fill="none" stroke-linejoin="round" d="M 183.08233 135.728481 C 182.365813 135.684007 181.678946 135.797662 181.021727 136.069444 C 180.359567 136.341226 179.791295 136.746428 179.321853 137.280109 " stroke="#263238" stroke-width="0.707" stroke-opacity="1" stroke-miterlimit="4"/><path stroke-linecap="round" transform="matrix(0.7905, 0, 0, 0.7905, 27.441399, -41.609761)" fill="none" stroke-linejoin="round" d="M 188.448791 135.367752 C 189.002238 135.061379 189.590276 134.883485 190.222787 134.843953 C 190.855298 134.804421 191.463102 134.903251 192.05114 135.140443 " stroke="#263238" stroke-width="0.707" stroke-opacity="1" stroke-miterlimit="4"/><path fill="#e4897b" d="M 160.09375 91.328125 C 160.09375 91.328125 167.9375 97.691406 175.234375 97.589844 C 182.53125 97.488281 185.097656 89.28125 185.097656 89.28125 C 185.097656 89.28125 173.777344 85.929688 160.09375 91.328125 Z M 160.09375 91.328125 " fill-opacity="1" fill-rule="nonzero"/><path fill="#e4897b" d="M 148.5625 107.21875 C 148.5625 107.21875 146.09375 121.761719 146.386719 125.90625 C 146.679688 130.046875 152.941406 130.171875 156.46875 129.753906 C 160.523438 129.273438 181.667969 120.910156 181.667969 120.910156 L 180.6875 116.726562 C 180.6875 116.726562 164.132812 121.234375 157.082031 122.023438 C 156.917969 122.039062 156.753906 122.039062 156.589844 122.019531 C 156.425781 121.996094 156.265625 121.957031 156.109375 121.902344 C 155.953125 121.84375 155.808594 121.769531 155.667969 121.679688 C 155.53125 121.585938 155.40625 121.484375 155.289062 121.363281 C 155.175781 121.242188 155.078125 121.113281 154.992188 120.96875 C 154.90625 120.828125 154.839844 120.675781 154.789062 120.519531 C 154.738281 120.363281 154.707031 120.199219 154.695312 120.035156 C 154.683594 119.871094 154.6875 119.707031 154.710938 119.542969 L 156.347656 108.742188 Z M 148.5625 107.21875 " fill-opacity="1" fill-rule="nonzero"/><path fill="#407bff" d="M 153.792969 92.308594 C 153.792969 92.308594 158.117188 91.351562 158.957031 98.222656 C 159.472656 102.449219 158.945312 106.539062 157.375 110.5 L 146.417969 108.523438 C 146.417969 108.523438 148.941406 92.664062 153.792969 92.308594 Z M 153.792969 92.308594 " fill-opacity="1" fill-rule="nonzero"/><path fill="#e4897b" d="M 186.085938 112.539062 C 185.808594 112.367188 185.507812 112.308594 185.1875 112.355469 C 183.890625 112.6875 179.953125 116.585938 179.722656 117.097656 L 180.734375 120.789062 C 180.734375 120.789062 182.804688 121.898438 183.808594 121.582031 C 184.8125 121.265625 189.90625 117.519531 189.914062 116.617188 C 189.917969 116.566406 189.917969 116.515625 189.914062 116.464844 C 190.09375 116.332031 190.246094 116.222656 190.347656 116.160156 C 191.210938 115.621094 188.023438 113.242188 186.085938 112.539062 Z M 186.085938 112.539062 " fill-opacity="1" fill-rule="nonzero"/><path fill="#263238" d="M 171.019531 58.695312 C 171.019531 58.695312 171.914062 67.457031 164.609375 67.773438 C 157.304688 68.089844 163.40625 59.921875 163.40625 59.921875 Z M 171.019531 58.695312 " fill-opacity="1" fill-rule="nonzero"/><path fill="#263238" d="M 169.453125 55.992188 C 157.445312 56.371094 158.441406 73.9375 164.933594 78.839844 C 164.933594 78.839844 161.769531 74.585938 163.605469 70.886719 C 163.605469 70.886719 165.976562 65.164062 165.1875 60.761719 C 167.054688 59.949219 169 59.445312 171.027344 59.25 C 172.378906 60.894531 175.769531 65.890625 180.214844 65.789062 C 180.46875 66.5625 180.667969 67.355469 180.804688 68.160156 C 180.804688 68.160156 181.476562 55.621094 169.453125 55.992188 Z M 169.453125 55.992188 " fill-opacity="1" fill-rule="nonzero"/><path fill="#263238" d="M 178.222656 76.757812 C 177.53125 77.125 176.796875 77.316406 176.015625 77.332031 C 175.238281 77.34375 174.496094 77.179688 173.792969 76.839844 C 173.695312 76.785156 173.675781 76.707031 173.730469 76.609375 C 173.777344 76.511719 173.851562 76.488281 173.945312 76.546875 C 174.597656 76.859375 175.285156 77.007812 176.011719 76.992188 C 176.734375 76.976562 177.414062 76.800781 178.054688 76.460938 C 178.148438 76.410156 178.222656 76.429688 178.277344 76.523438 C 178.324219 76.613281 178.304688 76.6875 178.214844 76.734375 Z M 178.222656 76.757812 " fill-opacity="1" fill-rule="nonzero"/><path fill="#e4897b" d="M 164.832031 72.300781 C 164.773438 71.898438 164.644531 71.523438 164.4375 71.171875 C 164.234375 70.820312 163.96875 70.523438 163.644531 70.277344 C 163.320312 70.035156 162.960938 69.859375 162.570312 69.757812 C 162.175781 69.652344 161.777344 69.628906 161.375 69.683594 C 159.226562 70.03125 158.433594 74.539062 163.882812 75.3125 C 164.65625 75.421875 165.050781 74.640625 164.832031 72.300781 Z M 164.832031 72.300781 " fill-opacity="1" fill-rule="nonzero"/><path fill="#407bff" d="M 164.015625 104.246094 L 171.289062 103.21875 C 171.289062 103.21875 173.660156 110.972656 169.34375 111.800781 C 164.625 112.71875 164.015625 104.246094 164.015625 104.246094 Z M 164.015625 104.246094 " fill-opacity="1" fill-rule="nonzero"/><path fill="#263238" d="M 191.414062 146.03125 C 191.050781 142.441406 190.480469 137.558594 189.753906 133.714844 L 189.824219 129.476562 L 162.734375 131.851562 L 162.492188 135.800781 C 161.859375 136.972656 159.089844 142.765625 157.84375 156.941406 C 160.660156 157.960938 163.550781 158.6875 166.515625 159.117188 C 169.480469 159.546875 172.460938 159.671875 175.449219 159.488281 C 178.441406 159.308594 181.382812 158.828125 184.277344 158.042969 C 187.167969 157.261719 189.949219 156.191406 192.625 154.835938 Z M 191.414062 146.03125 " fill-opacity="1" fill-rule="nonzero"/><path fill="#e4897b" d="M 260.117188 132.949219 L 246.339844 136.441406 C 245.238281 135.761719 244.050781 135.519531 242.773438 135.714844 C 240.820312 136.078125 235.9375 140.070312 236.125 140.65625 C 236.316406 141.242188 242.203125 143.953125 243.050781 143.730469 C 246.085938 142.941406 249.214844 139.40625 249.214844 139.40625 L 261.53125 136.871094 Z M 260.117188 132.949219 " fill-opacity="1" fill-rule="nonzero"/><path fill="#e4897b" d="M 294.628906 83.398438 C 291.832031 86.378906 284.417969 86.128906 284.417969 86.128906 C 284.417969 86.128906 281.972656 86.339844 281.367188 84.269531 C 284.046875 83.605469 284.457031 81.675781 284.875 80.007812 C 285.082031 78.96875 285.082031 77.925781 284.875 76.886719 C 284.789062 76.304688 284.667969 75.730469 284.511719 75.164062 L 293.121094 67.675781 C 292.320312 72.222656 291.46875 80.394531 294.628906 83.398438 Z M 294.628906 83.398438 " fill-opacity="1" fill-rule="nonzero"/><path fill="#000000" d="M 291.398438 72.144531 C 291.46875 77.675781 287.082031 79.527344 284.898438 80.007812 C 285.109375 78.96875 285.109375 77.925781 284.898438 76.886719 Z M 291.398438 72.144531 " fill-opacity="0.2" fill-rule="nonzero"/><path fill="#e4897b" d="M 292.109375 73.359375 C 291.691406 74.101562 291.164062 74.753906 290.53125 75.324219 C 289.898438 75.890625 289.1875 76.339844 288.40625 76.675781 C 287.625 77.011719 286.808594 77.210938 285.960938 77.28125 C 285.113281 77.347656 284.277344 77.277344 283.453125 77.066406 C 282.378906 76.820312 281.390625 76.386719 280.484375 75.761719 C 279.578125 75.132812 278.820312 74.363281 278.210938 73.449219 C 278.035156 73.195312 277.878906 72.929688 277.738281 72.65625 C 275.089844 67.613281 273.660156 58.546875 278.90625 54.6875 C 279.195312 54.472656 279.496094 54.277344 279.808594 54.101562 C 280.121094 53.921875 280.441406 53.765625 280.773438 53.628906 C 281.109375 53.492188 281.449219 53.378906 281.792969 53.289062 C 282.140625 53.195312 282.492188 53.125 282.851562 53.078125 C 283.207031 53.03125 283.5625 53.007812 283.921875 53.003906 C 284.28125 53.003906 284.640625 53.023438 284.996094 53.070312 C 285.351562 53.113281 285.707031 53.179688 286.054688 53.269531 C 286.402344 53.359375 286.742188 53.46875 287.074219 53.601562 C 287.410156 53.734375 287.734375 53.890625 288.046875 54.0625 C 288.363281 54.238281 288.664062 54.433594 288.953125 54.644531 C 289.242188 54.859375 289.515625 55.089844 289.777344 55.335938 C 290.035156 55.585938 290.277344 55.847656 290.503906 56.128906 C 290.730469 56.40625 290.9375 56.699219 291.125 57.007812 C 291.316406 57.3125 291.484375 57.628906 291.632812 57.957031 C 291.777344 58.285156 291.90625 58.617188 292.011719 58.960938 C 292.117188 59.304688 292.199219 59.65625 292.257812 60.007812 C 293.398438 66.054688 294.363281 69.558594 292.109375 73.359375 Z M 292.109375 73.359375 " fill-opacity="1" fill-rule="nonzero"/><path fill="#263238" d="M 283.269531 64.355469 C 283.359375 64.546875 283.367188 64.742188 283.296875 64.941406 C 283.230469 65.140625 283.101562 65.289062 282.914062 65.382812 C 282.597656 65.464844 282.242188 65.132812 282.125 64.648438 C 282.007812 64.167969 282.164062 63.699219 282.480469 63.621094 C 282.796875 63.542969 283.144531 63.867188 283.269531 64.355469 Z M 283.269531 64.355469 " fill-opacity="1" fill-rule="nonzero"/><path fill="#263238" d="M 277.933594 65.480469 C 278.09375 65.953125 277.894531 66.429688 277.585938 66.507812 C 277.277344 66.585938 276.90625 66.253906 276.796875 65.773438 C 276.6875 65.289062 276.835938 64.824219 277.152344 64.742188 C 277.46875 64.664062 277.816406 65.019531 277.933594 65.480469 Z M 277.933594 65.480469 " fill-opacity="1" fill-rule="nonzero"/><path fill="#de5753" d="M 279.855469 65.628906 C 279.703125 67.226562 279.332031 68.769531 278.742188 70.261719 C 279.53125 70.578125 280.636719 70.078125 281.390625 69.667969 Z M 279.855469 65.628906 " fill-opacity="1" fill-rule="nonzero"/><path fill="#263238" d="M 284.851562 61.765625 C 284.742188 61.808594 284.640625 61.792969 284.550781 61.714844 C 284.265625 61.476562 283.9375 61.3125 283.574219 61.226562 C 283.210938 61.140625 282.84375 61.140625 282.480469 61.226562 C 282.402344 61.261719 282.324219 61.261719 282.242188 61.226562 C 282.164062 61.191406 282.113281 61.132812 282.085938 61.050781 C 282.058594 60.96875 282.066406 60.890625 282.109375 60.8125 C 282.152344 60.738281 282.214844 60.691406 282.296875 60.671875 C 282.757812 60.554688 283.214844 60.550781 283.675781 60.652344 C 284.136719 60.757812 284.550781 60.957031 284.914062 61.257812 C 284.980469 61.308594 285.015625 61.371094 285.027344 61.453125 C 285.039062 61.53125 285.019531 61.605469 284.96875 61.667969 C 284.9375 61.707031 284.898438 61.738281 284.851562 61.765625 Z M 284.851562 61.765625 " fill-opacity="1" fill-rule="nonzero"/><path fill="#263238" d="M 282.519531 72.0625 C 283.25 71.984375 283.921875 71.746094 284.535156 71.34375 C 285.152344 70.945312 285.640625 70.425781 286.007812 69.789062 C 286.054688 69.695312 286.03125 69.625 285.933594 69.582031 C 285.847656 69.53125 285.78125 69.554688 285.738281 69.644531 C 285.390625 70.230469 284.933594 70.707031 284.359375 71.078125 C 283.789062 71.445312 283.164062 71.667969 282.488281 71.738281 C 282.382812 71.746094 282.335938 71.800781 282.347656 71.90625 C 282.355469 72.007812 282.410156 72.050781 282.511719 72.039062 Z M 282.519531 72.0625 " fill-opacity="1" fill-rule="nonzero"/><path fill="#263238" d="M 275.246094 64.0625 C 275.199219 64.105469 275.144531 64.121094 275.082031 64.121094 C 275 64.105469 274.941406 64.066406 274.894531 64 C 274.847656 63.929688 274.835938 63.859375 274.851562 63.78125 C 274.9375 63.3125 275.125 62.894531 275.417969 62.519531 C 275.707031 62.140625 276.066406 61.855469 276.496094 61.652344 C 276.570312 61.625 276.644531 61.625 276.71875 61.65625 C 276.792969 61.691406 276.847656 61.742188 276.875 61.820312 C 276.90625 61.894531 276.902344 61.96875 276.871094 62.042969 C 276.839844 62.117188 276.785156 62.167969 276.710938 62.199219 C 276.375 62.367188 276.09375 62.601562 275.871094 62.902344 C 275.648438 63.203125 275.503906 63.535156 275.4375 63.90625 C 275.398438 63.988281 275.332031 64.039062 275.246094 64.0625 Z M 275.246094 64.0625 " fill-opacity="1" fill-rule="nonzero"/><path fill="#e4897b" d="M 296.085938 64.238281 C 295.921875 64.996094 295.621094 65.695312 295.183594 66.335938 C 294.746094 66.976562 294.203125 67.511719 293.554688 67.9375 C 291.824219 69.042969 290.394531 67.644531 290.328125 65.699219 C 290.328125 63.96875 291.183594 61.25 293.167969 60.957031 C 295.152344 60.664062 296.449219 62.371094 296.085938 64.238281 Z M 296.085938 64.238281 " fill-opacity="1" fill-rule="nonzero"/><path fill="#407bff" d="M 268.859375 88.09375 C 265.847656 90.964844 263.738281 94.390625 262.535156 98.371094 C 261.050781 103.113281 259.660156 114.285156 258.980469 120.347656 C 258.90625 120.933594 258.746094 121.492188 258.496094 122.027344 C 258.242188 122.558594 257.914062 123.039062 257.507812 123.464844 C 257.101562 123.894531 256.636719 124.246094 256.117188 124.523438 C 255.597656 124.800781 255.046875 124.992188 254.464844 125.089844 L 237.816406 127.992188 L 239.144531 136.457031 L 260.234375 134.425781 C 260.796875 134.371094 261.347656 134.273438 261.894531 134.132812 C 262.4375 133.988281 262.96875 133.804688 263.484375 133.578125 C 264 133.347656 264.492188 133.082031 264.964844 132.773438 C 265.4375 132.46875 265.882812 132.125 266.300781 131.746094 C 266.71875 131.367188 267.101562 130.960938 267.453125 130.519531 C 267.804688 130.082031 268.121094 129.617188 268.398438 129.125 C 268.675781 128.636719 268.910156 128.125 269.105469 127.597656 C 269.300781 127.070312 269.453125 126.527344 269.5625 125.976562 C 270.851562 119.453125 272.574219 110 273.359375 102.515625 C 274.6875 89.796875 273.285156 86.785156 268.859375 88.09375 Z M 268.859375 88.09375 " fill-opacity="1" fill-rule="nonzero"/><path fill="#000000" d="M 268.859375 88.09375 C 265.847656 90.964844 263.738281 94.390625 262.535156 98.371094 C 261.050781 103.113281 259.660156 114.285156 258.980469 120.347656 C 258.90625 120.933594 258.746094 121.492188 258.496094 122.027344 C 258.242188 122.558594 257.914062 123.039062 257.507812 123.464844 C 257.101562 123.894531 256.636719 124.246094 256.117188 124.523438 C 255.597656 124.800781 255.046875 124.992188 254.464844 125.089844 L 237.816406 127.992188 L 239.144531 136.457031 L 260.234375 134.425781 C 260.796875 134.371094 261.347656 134.273438 261.894531 134.132812 C 262.4375 133.988281 262.96875 133.804688 263.484375 133.578125 C 264 133.347656 264.492188 133.082031 264.964844 132.773438 C 265.4375 132.46875 265.882812 132.125 266.300781 131.746094 C 266.71875 131.367188 267.101562 130.960938 267.453125 130.519531 C 267.804688 130.082031 268.121094 129.617188 268.398438 129.125 C 268.675781 128.636719 268.910156 128.125 269.105469 127.597656 C 269.300781 127.070312 269.453125 126.527344 269.5625 125.976562 C 270.851562 119.453125 272.574219 110 273.359375 102.515625 C 274.6875 89.796875 273.285156 86.785156 268.859375 88.09375 Z M 268.859375 88.09375 " fill-opacity="0.098" fill-rule="nonzero"/><path fill="#e4897b" d="M 257.167969 276.25 L 250.90625 274.707031 L 254.472656 261.292969 L 260.734375 262.835938 Z M 257.167969 276.25 " fill-opacity="1" fill-rule="nonzero"/><path fill="#2e353a" d="M 250.972656 272.542969 L 258.085938 275.105469 C 258.207031 275.148438 258.296875 275.222656 258.363281 275.335938 C 258.429688 275.445312 258.453125 275.5625 258.433594 275.6875 L 257.714844 281.308594 C 257.679688 281.5625 257.5625 281.765625 257.359375 281.917969 C 257.15625 282.070312 256.929688 282.132812 256.679688 282.101562 C 256.609375 282.089844 256.542969 282.070312 256.480469 282.042969 C 254.195312 281.183594 252.574219 280.464844 249.691406 279.394531 C 247.910156 278.75 242.480469 277.023438 240.03125 276.117188 C 237.578125 275.207031 238.132812 272.691406 239.238281 272.828125 C 244.101562 273.476562 247.984375 273.339844 249.886719 272.566406 C 250.246094 272.417969 250.605469 272.410156 250.972656 272.542969 Z M 250.972656 272.542969 " fill-opacity="1" fill-rule="nonzero"/><path fill="#407bff" d="M 248.664062 272.867188 C 248.238281 272.753906 247.902344 272.519531 247.652344 272.164062 C 247.488281 271.882812 247.488281 271.597656 247.652344 271.316406 C 247.710938 271.136719 247.839844 271.035156 248.03125 271.015625 C 248.820312 270.914062 250.265625 272.757812 250.402344 272.96875 C 250.445312 273.023438 250.445312 273.074219 250.402344 273.128906 C 250.375 273.191406 250.328125 273.214844 250.257812 273.207031 C 249.714844 273.152344 249.183594 273.039062 248.664062 272.867188 Z M 248.226562 271.339844 C 248.164062 271.324219 248.101562 271.324219 248.039062 271.339844 C 248.039062 271.339844 247.9375 271.339844 247.886719 271.46875 C 247.789062 271.65625 247.789062 271.847656 247.886719 272.035156 C 248.460938 272.585938 249.140625 272.871094 249.933594 272.890625 C 249.464844 272.265625 248.898438 271.75 248.226562 271.339844 Z M 248.226562 271.339844 " fill-opacity="1" fill-rule="nonzero"/><path fill="#407bff" d="M 250.234375 273.199219 L 250.164062 273.199219 C 249.683594 272.652344 248.980469 270.945312 249.320312 270.375 C 249.378906 270.277344 249.460938 270.210938 249.570312 270.171875 C 249.679688 270.132812 249.789062 270.132812 249.894531 270.171875 C 250.132812 270.21875 250.308594 270.347656 250.425781 270.558594 C 250.898438 271.347656 250.425781 273.089844 250.425781 273.175781 C 250.410156 273.230469 250.371094 273.261719 250.316406 273.269531 C 250.277344 273.257812 250.25 273.234375 250.234375 273.199219 Z M 249.910156 270.410156 L 249.847656 270.410156 C 249.667969 270.34375 249.621094 270.449219 249.59375 270.480469 C 249.382812 270.835938 249.777344 272.0625 250.210938 272.75 C 250.429688 272.054688 250.429688 271.363281 250.210938 270.667969 C 250.148438 270.539062 250.050781 270.453125 249.910156 270.410156 Z M 249.910156 270.410156 " fill-opacity="1" fill-rule="nonzero"/><path fill="#000000" d="M 260.734375 262.835938 L 254.472656 261.292969 L 252.640625 268.21875 L 258.898438 269.753906 Z M 260.734375 262.835938 " fill-opacity="0.2" fill-rule="nonzero"/><path fill="#e4897b" d="M 298.621094 276.1875 L 292.21875 276.945312 L 290.835938 263.136719 L 297.238281 262.378906 Z M 298.621094 276.1875 " fill-opacity="1" fill-rule="nonzero"/><path fill="#2e353a" d="M 291.515625 274.898438 L 299.066406 274.796875 C 299.191406 274.796875 299.308594 274.835938 299.40625 274.914062 C 299.507812 274.996094 299.574219 275.097656 299.601562 275.222656 L 300.898438 280.757812 C 300.953125 281.003906 300.914062 281.234375 300.777344 281.449219 C 300.640625 281.664062 300.449219 281.796875 300.203125 281.855469 C 300.136719 281.863281 300.066406 281.863281 299.996094 281.855469 C 297.554688 281.855469 295.777344 281.71875 292.710938 281.761719 C 290.820312 281.761719 285.128906 282.050781 282.519531 282.09375 C 279.910156 282.132812 279.53125 279.546875 280.597656 279.300781 C 285.34375 278.195312 288.960938 276.699219 290.480469 275.300781 C 290.769531 275.027344 291.117188 274.890625 291.515625 274.898438 Z M 291.515625 274.898438 " fill-opacity="1" fill-rule="nonzero"/><path fill="#407bff" d="M 289.476562 276.011719 C 289.039062 276.054688 288.640625 275.957031 288.273438 275.710938 C 288.019531 275.507812 287.914062 275.246094 287.957031 274.921875 C 287.949219 274.730469 288.03125 274.589844 288.203125 274.503906 C 288.890625 274.140625 290.914062 275.347656 291.136719 275.484375 C 291.195312 275.511719 291.21875 275.5625 291.207031 275.625 C 291.203125 275.695312 291.164062 275.738281 291.097656 275.753906 C 290.566406 275.902344 290.027344 275.988281 289.476562 276.011719 Z M 288.535156 274.742188 C 288.46875 274.734375 288.40625 274.746094 288.347656 274.78125 C 288.304688 274.78125 288.257812 274.835938 288.25 274.953125 C 288.226562 275.164062 288.296875 275.34375 288.457031 275.484375 C 289.183594 275.800781 289.921875 275.828125 290.671875 275.5625 C 290.011719 275.148438 289.300781 274.875 288.535156 274.742188 Z M 288.535156 274.742188 " fill-opacity="1" fill-rule="nonzero"/><path fill="#407bff" d="M 291.058594 275.777344 L 290.984375 275.777344 C 290.347656 275.4375 289.089844 274.085938 289.207031 273.40625 C 289.226562 273.289062 289.28125 273.195312 289.367188 273.121094 C 289.457031 273.046875 289.558594 273.007812 289.675781 273.007812 C 289.910156 272.976562 290.117188 273.035156 290.296875 273.191406 C 291.027344 273.769531 291.199219 275.5625 291.207031 275.632812 C 291.210938 275.691406 291.1875 275.738281 291.136719 275.769531 Z M 289.777344 273.269531 L 289.707031 273.269531 C 289.515625 273.269531 289.5 273.378906 289.5 273.421875 C 289.421875 273.824219 290.226562 274.851562 290.875 275.324219 C 290.816406 274.597656 290.550781 273.949219 290.085938 273.386719 C 289.996094 273.308594 289.894531 273.269531 289.777344 273.269531 Z M 289.777344 273.269531 " fill-opacity="1" fill-rule="nonzero"/><path fill="#000000" d="M 297.238281 262.378906 L 290.835938 263.136719 L 291.554688 270.257812 L 297.957031 269.5 Z M 297.238281 262.378906 " fill-opacity="0.2" fill-rule="nonzero"/><path fill="#407bff" d="M 268.84375 149.976562 C 268.84375 149.976562 252.734375 228.742188 252.179688 258.984375 L 262.914062 263.785156 C 262.914062 263.785156 271.660156 229.609375 274.496094 210.410156 C 274.496094 210.410156 282.023438 195.160156 284.046875 182.742188 C 284.046875 182.742188 283.625 237.285156 289.277344 266.070312 L 299.351562 265.277344 C 299.351562 265.277344 309.507812 162.957031 307.671875 146.578125 Z M 268.84375 149.976562 " fill-opacity="1" fill-rule="nonzero"/><path fill="#ffffff" d="M 268.84375 149.976562 C 268.84375 149.976562 252.734375 228.742188 252.179688 258.984375 L 262.914062 263.785156 C 262.914062 263.785156 271.660156 229.609375 274.496094 210.410156 C 274.496094 210.410156 282.023438 195.160156 284.046875 182.742188 C 284.046875 182.742188 283.625 237.285156 289.277344 266.070312 L 299.351562 265.277344 C 299.351562 265.277344 309.507812 162.957031 307.671875 146.578125 Z M 268.84375 149.976562 " fill-opacity="0.6" fill-rule="nonzero"/><path fill="#000000" d="M 282.296875 162.859375 C 282.296875 162.859375 281.105469 181.589844 282.804688 188.464844 C 283.316406 186.527344 283.746094 184.601562 284.046875 182.734375 Z M 282.296875 162.859375 " fill-opacity="0.2" fill-rule="nonzero"/><path fill="#407bff" d="M 288 268.351562 L 301.824219 266.296875 L 301.398438 262.472656 L 287.027344 264.351562 Z M 288 268.351562 " fill-opacity="1" fill-rule="nonzero"/><path fill="#407bff" d="M 250.363281 261.933594 L 263.714844 266.042969 L 264.988281 262.417969 L 251.207031 257.902344 Z M 250.363281 261.933594 " fill-opacity="1" fill-rule="nonzero"/><path fill="#407bff" d="M 268.859375 88.09375 C 268.859375 88.09375 270.566406 84.71875 285.570312 83.851562 C 300.574219 82.980469 307.277344 85.203125 307.277344 85.203125 C 307.277344 85.203125 305.917969 116.964844 307.65625 146.585938 C 307.65625 146.585938 282.566406 155.523438 268.828125 149.976562 C 268.84375 149.976562 258.550781 111.613281 268.859375 88.09375 Z M 268.859375 88.09375 " fill-opacity="1" fill-rule="nonzero"/><path fill="#000000" d="M 290.945312 83.660156 C 289.285156 83.660156 287.5 83.738281 285.570312 83.851562 C 284.410156 83.921875 283.34375 84 282.339844 84.09375 C 282.339844 84.09375 283.617188 86.523438 285.570312 86.523438 C 286.648438 86.527344 287.664062 86.273438 288.617188 85.765625 C 289.570312 85.257812 290.347656 84.558594 290.945312 83.660156 Z M 290.945312 83.660156 " fill-opacity="0.2" fill-rule="nonzero"/><path fill="#000000" d="M 306.890625 124.933594 L 284.046875 136.480469 C 284.046875 136.480469 298.449219 136.925781 307.058594 132.253906 C 306.988281 129.78125 306.933594 127.339844 306.890625 124.933594 Z M 306.890625 124.933594 " fill-opacity="0.298" fill-rule="nonzero"/><path fill="#000000" d="M 285.277344 92.742188 L 293.398438 128.863281 L 291.59375 133.535156 Z M 285.277344 92.742188 " fill-opacity="0.098" fill-rule="nonzero"/><path fill="#407bff" d="M 242.78125 99.976562 L 285.535156 93.890625 L 291.351562 134.75 L 248.597656 140.835938 Z M 242.78125 99.976562 " fill-opacity="1" fill-rule="nonzero"/><path fill="#ffffff" d="M 242.78125 99.976562 L 285.535156 93.890625 L 291.351562 134.75 L 248.597656 140.835938 Z M 242.78125 99.976562 " fill-opacity="0.098" fill-rule="nonzero"/><path fill="#407bff" d="M 220.046875 102.832031 L 253.125 97.710938 L 259.4375 138.5 L 226.363281 143.621094 Z M 220.046875 102.832031 " fill-opacity="1" fill-rule="nonzero"/><path fill="#ffffff" d="M 220.046875 102.832031 L 253.125 97.710938 L 259.4375 138.5 L 226.363281 143.621094 Z M 220.046875 102.832031 " fill-opacity="0.298" fill-rule="nonzero"/><path fill="#ffffff" d="M 231.914062 100.992188 L 241.269531 99.542969 L 242.972656 110.527344 L 233.613281 111.976562 Z M 231.914062 100.992188 " fill-opacity="0.298" fill-rule="nonzero"/><path fill="#000000" d="M 266.832031 95.59375 L 276.191406 94.144531 L 277.890625 105.128906 L 268.535156 106.578125 Z M 266.832031 95.59375 " fill-opacity="0.098" fill-rule="nonzero"/><path fill="#ffffff" d="M 245.832031 131.929688 L 256.058594 130.347656 L 257.023438 136.574219 L 246.796875 138.15625 Z M 245.832031 131.929688 " fill-opacity="0.2" fill-rule="nonzero"/><path fill="#2e353a" d="M 272.03125 136.15625 L 270.980469 134.765625 L 267.585938 135.492188 C 267.40625 136.078125 267.335938 136.671875 267.382812 137.28125 L 272.125 136.554688 Z M 272.03125 136.15625 " fill-opacity="0.2" fill-rule="nonzero"/><path fill="#ffffff" d="M 266.171875 119.035156 C 265.382812 119.304688 264.273438 119.289062 264.164062 118.246094 C 264.078125 117.375 265.105469 116.664062 265.886719 116.804688 C 266.039062 116.832031 266.128906 116.769531 266.15625 116.617188 C 266.183594 116.464844 266.121094 116.375 265.96875 116.347656 C 265.683594 116.308594 265.40625 116.328125 265.128906 116.410156 C 264.855469 116.488281 264.609375 116.621094 264.394531 116.808594 C 264.175781 116.996094 264.007812 117.214844 263.886719 117.476562 C 263.765625 117.734375 263.703125 118.007812 263.699219 118.292969 C 263.832031 119.667969 265.277344 119.875 266.347656 119.476562 C 266.65625 119.375 266.488281 118.933594 266.171875 119.035156 Z M 266.171875 119.035156 " fill-opacity="1" fill-rule="nonzero"/><path fill="#ffffff" d="M 266.960938 114.6875 C 266.890625 114.394531 266.425781 114.441406 266.488281 114.734375 C 266.832031 116.242188 267.164062 117.746094 267.492188 119.25 C 267.554688 119.542969 268.023438 119.503906 267.957031 119.203125 Z M 266.960938 114.6875 " fill-opacity="1" fill-rule="nonzero"/><path fill="#ffffff" d="M 269.769531 115.574219 C 269.734375 115.582031 269.710938 115.601562 269.691406 115.628906 C 267.578125 116.03125 268.820312 119.328125 270.78125 118.71875 C 270.984375 118.632812 271.160156 118.511719 271.320312 118.355469 C 271.476562 118.203125 271.601562 118.027344 271.691406 117.824219 C 271.78125 117.625 271.835938 117.417969 271.847656 117.195312 C 271.863281 116.976562 271.835938 116.761719 271.769531 116.554688 C 271.722656 116.34375 271.628906 116.152344 271.496094 115.984375 C 271.363281 115.8125 271.199219 115.679688 271.003906 115.585938 C 270.808594 115.488281 270.605469 115.441406 270.386719 115.4375 C 270.171875 115.4375 269.964844 115.480469 269.769531 115.574219 Z M 270.8125 118.191406 C 269.429688 118.980469 268.203125 116.355469 269.777344 116.085938 C 269.828125 116.082031 269.867188 116.058594 269.902344 116.023438 C 271.3125 115.4375 271.886719 117.574219 270.8125 118.191406 Z M 270.8125 118.191406 " fill-opacity="1" fill-rule="nonzero"/><path fill="#ffffff" d="M 273.714844 114.324219 L 272.851562 114.472656 L 272.710938 113.542969 C 272.664062 113.242188 272.195312 113.289062 272.242188 113.589844 C 272.289062 113.890625 272.339844 114.230469 272.394531 114.554688 L 271.539062 114.695312 C 271.246094 114.75 271.285156 115.21875 271.585938 115.171875 L 272.464844 115.019531 L 272.988281 118.410156 C 273.035156 118.703125 273.5 118.65625 273.453125 118.355469 C 273.277344 117.21875 273.097656 116.078125 272.921875 114.941406 L 273.769531 114.789062 C 274.078125 114.742188 274.015625 114.269531 273.714844 114.324219 Z M 273.714844 114.324219 " fill-opacity="1" fill-rule="nonzero"/><path fill="#ffffff" d="M 277.019531 114.949219 C 276.726562 114.773438 276.40625 114.695312 276.066406 114.707031 C 275.726562 114.71875 275.417969 114.824219 275.136719 115.019531 C 275.027344 114.402344 274.90625 113.785156 274.78125 113.171875 C 274.71875 112.878906 274.25 112.925781 274.316406 113.226562 C 274.636719 114.804688 274.898438 116.386719 275.105469 117.96875 C 275.152344 118.269531 275.617188 118.222656 275.570312 117.921875 C 275.460938 117.128906 275.335938 116.339844 275.199219 115.550781 C 275.324219 115.425781 275.464844 115.332031 275.628906 115.269531 C 275.792969 115.207031 275.960938 115.179688 276.132812 115.1875 C 276.308594 115.195312 276.472656 115.238281 276.628906 115.3125 C 276.785156 115.390625 276.921875 115.496094 277.035156 115.628906 C 277.324219 116.238281 277.46875 116.882812 277.46875 117.558594 C 277.503906 117.6875 277.585938 117.746094 277.722656 117.734375 C 277.855469 117.71875 277.929688 117.644531 277.933594 117.511719 C 277.886719 116.65625 277.855469 115.398438 277.019531 114.949219 Z M 277.019531 114.949219 " fill-opacity="1" fill-rule="nonzero"/><path fill="#ffffff" d="M 279.011719 114.046875 C 278.816406 114.148438 278.65625 114.285156 278.523438 114.460938 C 278.386719 114.632812 278.296875 114.824219 278.246094 115.035156 C 278.195312 115.246094 278.191406 115.460938 278.230469 115.671875 C 278.273438 115.886719 278.355469 116.082031 278.480469 116.261719 C 278.582031 116.476562 278.726562 116.664062 278.90625 116.820312 C 279.089844 116.976562 279.292969 117.089844 279.523438 117.160156 C 279.753906 117.230469 279.984375 117.253906 280.222656 117.226562 C 280.460938 117.199219 280.683594 117.125 280.890625 117.003906 C 281.160156 116.871094 280.996094 116.425781 280.726562 116.5625 C 280.5 116.722656 280.25 116.796875 279.972656 116.777344 C 279.695312 116.761719 279.453125 116.660156 279.246094 116.472656 C 279.09375 116.332031 278.964844 116.167969 278.867188 115.984375 C 279.5625 116.039062 280.835938 115.898438 280.867188 115.136719 C 280.90625 114.167969 279.792969 113.738281 279.011719 114.046875 Z M 280.339844 115.210938 C 280.265625 115.320312 279.941406 115.390625 279.816406 115.429688 C 279.453125 115.546875 279.085938 115.570312 278.710938 115.496094 C 278.660156 115.226562 278.710938 114.980469 278.867188 114.757812 C 278.984375 114.613281 279.132812 114.515625 279.308594 114.464844 C 279.488281 114.410156 279.664062 114.414062 279.839844 114.472656 C 280.070312 114.53125 280.558594 114.910156 280.339844 115.210938 Z M 280.339844 115.210938 " fill-opacity="1" fill-rule="nonzero"/><path fill="#ffffff" d="M 284.355469 114.964844 C 284.21875 114.734375 284.027344 114.566406 283.777344 114.46875 C 283.527344 114.371094 283.273438 114.359375 283.019531 114.433594 C 282.636719 114.515625 281.722656 114.894531 281.925781 114.140625 C 282.054688 113.644531 282.71875 113.453125 283.183594 113.496094 C 283.484375 113.496094 283.5625 113.058594 283.253906 113.027344 C 282.464844 112.957031 280.9375 113.667969 281.429688 114.703125 C 281.660156 115.1875 282.21875 115.128906 282.679688 115.019531 C 282.929688 114.914062 283.195312 114.867188 283.46875 114.871094 C 283.6875 114.886719 283.839844 114.996094 283.925781 115.199219 C 284.011719 115.402344 283.984375 115.585938 283.839844 115.753906 C 283.507812 116.191406 282.859375 116.109375 282.386719 116.03125 C 282.238281 116.019531 282.152344 116.082031 282.128906 116.226562 C 282.105469 116.375 282.164062 116.464844 282.304688 116.5 C 282.9375 116.675781 283.523438 116.578125 284.0625 116.207031 C 284.238281 116.050781 284.351562 115.859375 284.40625 115.632812 C 284.460938 115.402344 284.441406 115.179688 284.355469 114.964844 Z M 284.355469 114.964844 " fill-opacity="1" fill-rule="nonzero"/><path fill="#e4897b" d="M 291.648438 128.015625 L 277.839844 131.382812 C 276.75 130.683594 275.558594 130.417969 274.273438 130.59375 C 272.332031 130.941406 267.40625 134.886719 267.585938 135.46875 C 267.769531 136.054688 272.332031 139.628906 273.175781 139.367188 C 274.023438 139.105469 279.34375 135.34375 279.34375 135.34375 L 292.496094 134.246094 Z M 291.648438 128.015625 " fill-opacity="1" fill-rule="nonzero"/><path fill="#407bff" d="M 306.402344 85.15625 C 306.402344 85.15625 300.597656 86.695312 301.421875 97.460938 C 301.785156 102.144531 301.964844 107.136719 302.0625 111.296875 C 302.089844 112.6875 301.925781 114.054688 301.5625 115.398438 C 301.203125 116.742188 300.664062 118.007812 299.941406 119.199219 C 299.222656 120.386719 298.347656 121.453125 297.324219 122.394531 C 296.300781 123.335938 295.164062 124.117188 293.917969 124.734375 L 282.582031 129.367188 L 284.046875 136.480469 C 284.046875 136.480469 300.519531 134.972656 306.3125 130.339844 C 312.109375 125.707031 314.125 115.816406 313.183594 107.621094 C 311.871094 96.238281 312.304688 84.695312 306.402344 85.15625 Z M 306.402344 85.15625 " fill-opacity="1" fill-rule="nonzero"/><path fill="#000000" d="M 306.402344 85.15625 C 306.402344 85.15625 300.597656 86.695312 301.421875 97.460938 C 301.785156 102.144531 301.964844 107.136719 302.0625 111.296875 C 302.089844 112.6875 301.925781 114.054688 301.5625 115.398438 C 301.203125 116.742188 300.664062 118.007812 299.941406 119.199219 C 299.222656 120.386719 298.347656 121.453125 297.324219 122.394531 C 296.300781 123.335938 295.164062 124.117188 293.917969 124.734375 L 282.582031 129.367188 L 284.046875 136.480469 C 284.046875 136.480469 300.519531 134.972656 306.3125 130.339844 C 312.109375 125.707031 314.125 115.816406 313.183594 107.621094 C 311.871094 96.238281 312.304688 84.695312 306.402344 85.15625 Z M 306.402344 85.15625 " fill-opacity="0.098" fill-rule="nonzero"/><path fill="#407bff" d="M 283.660156 127.566406 L 284.621094 137.460938 L 281.957031 137.714844 L 280.542969 128.449219 Z M 283.660156 127.566406 " fill-opacity="1" fill-rule="nonzero"/><path fill="#ffffff" d="M 283.660156 127.566406 L 284.621094 137.460938 L 281.957031 137.714844 L 280.542969 128.449219 Z M 283.660156 127.566406 " fill-opacity="0.6" fill-rule="nonzero"/><path fill="#ffffff" d="M 288.402344 101.207031 L 297.589844 100.382812 L 297.722656 101.847656 L 288.535156 102.671875 Z M 288.402344 101.207031 " fill-opacity="0.4" fill-rule="nonzero"/><path fill="#407bff" d="M 285.570312 83.851562 L 288.542969 87.804688 L 294.8125 83.667969 L 294.8125 83.289062 C 294.84375 82.574219 294.582031 81.996094 294.023438 81.550781 C 293.71875 81.363281 293.386719 81.257812 293.03125 81.234375 C 292.675781 81.210938 292.332031 81.269531 292.007812 81.414062 Z M 285.570312 83.851562 " fill-opacity="1" fill-rule="nonzero"/><path fill="#407bff" d="M 281.390625 84.167969 L 282.125 82.949219 C 283.050781 81.859375 283.785156 82.417969 283.785156 82.417969 L 285.570312 83.851562 L 282.960938 87.804688 Z M 281.390625 84.167969 " fill-opacity="1" fill-rule="nonzero"/><path fill="#ffffff" d="M 285.570312 83.851562 L 288.542969 87.804688 L 294.8125 83.667969 L 294.8125 83.289062 C 294.84375 82.574219 294.582031 81.996094 294.023438 81.550781 C 293.71875 81.363281 293.386719 81.257812 293.03125 81.234375 C 292.675781 81.210938 292.332031 81.269531 292.007812 81.414062 Z M 285.570312 83.851562 " fill-opacity="0.6" fill-rule="nonzero"/><path fill="#ffffff" d="M 281.390625 84.167969 L 282.125 82.949219 C 283.050781 81.859375 283.785156 82.417969 283.785156 82.417969 L 285.570312 83.851562 L 282.960938 87.804688 Z M 281.390625 84.167969 " fill-opacity="0.6" fill-rule="nonzero"/><path fill="#2e353a" d="M 295.925781 64.078125 C 296.347656 61.375 294.472656 61.003906 293.238281 61.328125 C 292.007812 61.652344 290.671875 63.613281 290.671875 63.613281 C 289.46875 61.667969 288.789062 56.746094 288.789062 56.746094 C 288.023438 57.167969 287.222656 57.496094 286.382812 57.730469 C 285.542969 57.964844 284.6875 58.101562 283.816406 58.140625 C 282.945312 58.175781 282.078125 58.113281 281.222656 57.949219 C 280.363281 57.785156 279.539062 57.527344 278.742188 57.171875 C 278.109375 58.878906 277.019531 60.214844 275.476562 61.179688 C 275.476562 61.179688 273.246094 60.160156 274.488281 55.035156 C 275.894531 49.210938 284.644531 43.574219 293.460938 49.382812 C 302.273438 55.195312 296.9375 65.984375 296.9375 65.984375 C 296.9375 65.984375 294.9375 69.519531 293.167969 70.847656 C 293.320312 69.792969 293.320312 68.738281 293.167969 67.683594 C 293.898438 67.347656 294.507812 66.863281 294.992188 66.222656 C 295.480469 65.585938 295.792969 64.871094 295.925781 64.078125 Z M 295.925781 64.078125 " fill-opacity="1" fill-rule="nonzero"/><path fill="#2e353a" d="M 277.699219 55.722656 C 278.210938 56.351562 278.796875 56.898438 279.453125 57.367188 C 280.121094 57.847656 280.839844 58.234375 281.601562 58.539062 C 282.367188 58.839844 283.15625 59.03125 283.972656 59.117188 C 284.808594 59.195312 285.644531 59.171875 286.472656 59.042969 C 285.648438 59.238281 284.8125 59.328125 283.964844 59.3125 C 283.105469 59.296875 282.265625 59.164062 281.445312 58.910156 C 280.609375 58.664062 279.816406 58.3125 279.074219 57.859375 C 278.316406 57.40625 277.632812 56.859375 277.027344 56.222656 Z M 277.699219 55.722656 " fill-opacity="1" fill-rule="nonzero"/><path fill="#407bff" d="M 379.347656 100.394531 C 372.945312 94.671875 365.46875 102.433594 365.46875 102.433594 C 365.46875 102.433594 357.980469 94.671875 351.585938 100.394531 C 342.464844 108.5625 355.726562 123.1875 365.46875 126.109375 C 375.207031 123.1875 388.46875 108.585938 379.347656 100.394531 Z M 379.347656 100.394531 " fill-opacity="1" fill-rule="nonzero"/><path fill="#ffffff" d="M 379.347656 100.394531 C 372.945312 94.671875 365.46875 102.433594 365.46875 102.433594 C 365.46875 102.433594 357.980469 94.671875 351.585938 100.394531 C 342.464844 108.5625 355.726562 123.1875 365.46875 126.109375 C 375.207031 123.1875 388.46875 108.585938 379.347656 100.394531 Z M 379.347656 100.394531 " fill-opacity="0.6" fill-rule="nonzero"/><path fill="#407bff" d="M 250.101562 24.269531 C 243.699219 18.546875 236.21875 26.308594 236.21875 26.308594 C 236.21875 26.308594 228.734375 18.546875 222.339844 24.269531 C 213.21875 32.429688 226.480469 47.050781 236.21875 49.984375 C 245.960938 47.050781 259.222656 32.429688 250.101562 24.269531 Z M 250.101562 24.269531 " fill-opacity="1" fill-rule="nonzero"/><path fill="#ffffff" d="M 250.101562 24.269531 C 243.699219 18.546875 236.21875 26.308594 236.21875 26.308594 C 236.21875 26.308594 228.734375 18.546875 222.339844 24.269531 C 213.21875 32.429688 226.480469 47.050781 236.21875 49.984375 C 245.960938 47.050781 259.222656 32.429688 250.101562 24.269531 Z M 250.101562 24.269531 " fill-opacity="0.6" fill-rule="nonzero"/><path fill="#407bff" d="M 325.332031 48.03125 C 322.71875 45.660156 319.65625 48.871094 319.65625 48.871094 C 319.65625 48.871094 316.605469 45.707031 313.988281 48.03125 C 310.257812 51.367188 315.679688 57.34375 319.65625 58.546875 C 323.640625 57.34375 329.058594 51.367188 325.332031 48.03125 Z M 325.332031 48.03125 " fill-opacity="1" fill-rule="nonzero"/><path fill="#ffffff" d="M 325.332031 48.03125 C 322.71875 45.660156 319.65625 48.871094 319.65625 48.871094 C 319.65625 48.871094 316.605469 45.707031 313.988281 48.03125 C 310.257812 51.367188 315.679688 57.34375 319.65625 58.546875 C 323.640625 57.34375 329.058594 51.367188 325.332031 48.03125 Z M 325.332031 48.03125 " fill-opacity="0.6" fill-rule="nonzero"/><path fill="#407bff" d="M 86.308594 110.847656 C 83.695312 108.472656 80.640625 111.683594 80.640625 111.683594 C 80.640625 111.683594 77.582031 108.523438 74.964844 110.847656 C 71.242188 114.183594 76.65625 120.15625 80.640625 121.351562 C 84.617188 120.15625 90.042969 114.183594 86.308594 110.847656 Z M 86.308594 110.847656 " fill-opacity="1" fill-rule="nonzero"/><path fill="#ffffff" d="M 86.308594 110.847656 C 83.695312 108.472656 80.640625 111.683594 80.640625 111.683594 C 80.640625 111.683594 77.582031 108.523438 74.964844 110.847656 C 71.242188 114.183594 76.65625 120.15625 80.640625 121.351562 C 84.617188 120.15625 90.042969 114.183594 86.308594 110.847656 Z M 86.308594 110.847656 " fill-opacity="0.6" fill-rule="nonzero"/></svg>